<svg width="595.44" height="841.68" xmlns="http://www.w3.org/2000/svg" version="1.2" baseProfile="tiny" style="background-color:#fff"><path class="StaffLines" fill="none" stroke="#000" stroke-width=".4" stroke-linejoin="bevel" d="M38.846 63.346h528.248M38.846 68.347h528.248M38.846 73.347h528.248M38.846 78.347h528.248M38.846 83.347h528.248M38.846 115.847h528.248M38.846 120.847h528.248M38.846 125.847h528.248M38.846 130.847h528.248M38.846 135.847h528.248M38.846 186.175h528.248M38.846 191.175h528.248M38.846 196.175h528.248M38.846 201.175h528.248M38.846 206.175h528.248M38.846 238.675h528.248M38.846 243.675h528.248M38.846 248.675h528.248M38.846 253.675h528.248M38.846 258.675h528.248M38.846 309.003h528.248M38.846 314.003h528.248M38.846 319.003h528.248M38.846 324.003h528.248M38.846 329.003h528.248M38.846 361.503h528.248M38.846 366.503h528.248M38.846 371.503h528.248M38.846 376.503h528.248M38.846 381.503h528.248M38.846 431.831h528.248M38.846 436.831h528.248M38.846 441.831h528.248M38.846 446.831h528.248M38.846 451.831h528.248M38.846 484.331h528.248M38.846 489.331h528.248M38.846 494.331h528.248M38.846 499.331h528.248M38.846 504.331h528.248M38.846 554.659h528.248M38.846 559.659h528.248M38.846 564.659h528.248M38.846 569.659h528.248M38.846 574.659h528.248M38.846 607.159h528.248M38.846 612.159h528.248M38.846 617.159h528.248M38.846 622.159h528.248M38.846 627.159h528.248M38.846 677.487h528.248M38.846 682.487h528.248M38.846 687.487h528.248M38.846 692.487h528.248M38.846 697.487h528.248M38.846 729.987h528.248M38.846 734.987h528.248M38.846 739.987h528.248M38.846 744.987h528.248M38.846 749.987h528.248"/><path class="SlurSegment" stroke="#000" stroke-width=".35" stroke-linecap="round" stroke-linejoin="round" fill-rule="evenodd" d="M477.923 693.737c8.325 5.927 33.299 5.927 41.623 0-8.324 6.727-33.298 6.727-41.623 0M224.621 574.588c3.984 2.628 15.934 2.628 19.917 0-3.983 3.428-15.933 3.428-19.917 0M326.977 460.581c15.663 6.1 62.653 6.1 78.316 0-15.663 6.9-62.653 6.9-78.316 0"/><path class="BarLine" stroke="#000" stroke-width=".8" stroke-linejoin="bevel" d="M39.246 677.487v72.5M39.246 554.659v72.5M39.246 431.831v72.5M39.246 309.003v72.5M39.246 186.175v72.5M39.246 63.346v72.501M566.694 677.487v72.5M464.916 677.487v72.5M354.049 677.487v72.5M356.349 677.487v72.5M265.219 677.487v72.5"/><path class="BarLine" d="M163.732 684.987c0 .562.438 1 1 1 .563 0 1-.438 1-1 0-.563-.437-1-1-1-.562 0-1 .437-1 1M163.732 689.987c0 .562.438 1 1 1 .563 0 1-.438 1-1 0-.563-.437-1-1-1-.562 0-1 .437-1 1M163.732 737.487c0 .562.438 1 1 1 .563 0 1-.438 1-1 0-.563-.437-1-1-1-.562 0-1 .437-1 1M163.732 742.487c0 .562.438 1 1 1 .563 0 1-.438 1-1 0-.563-.437-1-1-1-.562 0-1 .437-1 1"/><path class="BarLine" stroke="#000" stroke-width=".8" stroke-linejoin="bevel" d="M168.131 677.487v72.5"/><path class="BarLine" stroke="#000" stroke-width="2.5" stroke-linejoin="bevel" d="M171.781 677.487v72.5"/><path class="BarLine" stroke="#000" stroke-width=".8" stroke-linejoin="bevel" d="M566.694 554.659v72.5M483.377 554.659v72.5M400.06 554.659v72.5M316.743 554.659v72.5M233.427 554.659v72.5M139.041 554.659v72.5M566.694 431.831v72.5"/><path class="BarLine" d="M483.085 439.331c0 .562.438 1 1 1 .563 0 1-.438 1-1 0-.563-.437-1-1-1-.562 0-1 .437-1 1M483.085 444.331c0 .562.438 1 1 1 .563 0 1-.438 1-1 0-.563-.437-1-1-1-.562 0-1 .437-1 1M483.085 491.831c0 .562.438 1 1 1 .563 0 1-.438 1-1 0-.563-.437-1-1-1-.562 0-1 .437-1 1M483.085 496.831c0 .562.438 1 1 1 .563 0 1-.438 1-1 0-.563-.437-1-1-1-.562 0-1 .437-1 1"/><path class="BarLine" stroke="#000" stroke-width=".8" stroke-linejoin="bevel" d="M480.688 431.831v72.5"/><path class="BarLine" stroke="#000" stroke-width="2.5" stroke-linejoin="bevel" d="M477.038 431.831v72.5"/><path class="BarLine" stroke="#000" stroke-width=".8" stroke-linejoin="bevel" d="M394.182 431.831v72.5M312.175 431.831v72.5M230.168 431.831v72.5M137.731 431.831v72.5M566.694 309.003v72.5M491.316 309.003v72.5M415.939 309.003v72.5M330.132 309.003v72.5M206.479 309.003v72.5M131.102 309.003v72.5M566.694 186.175v72.5M474.879 186.175v72.5M393.494 186.175v72.5M312.109 186.175v72.5M230.725 186.175v72.5M136.61 186.175v72.5M138.91 186.175v72.5M566.694 63.346v72.501M482.948 63.346v72.501"/><path class="BarLine" d="M390.305 70.847c0 .562.437 1 1 1 .562 0 1-.438 1-1 0-.563-.438-1-1-1-.563 0-1 .437-1 1M390.305 75.847c0 .562.437 1 1 1 .562 0 1-.438 1-1 0-.563-.438-1-1-1-.563 0-1 .437-1 1M390.305 123.347c0 .562.437 1 1 1 .562 0 1-.438 1-1 0-.563-.438-1-1-1-.563 0-1 .437-1 1M390.305 128.347c0 .562.437 1 1 1 .562 0 1-.438 1-1 0-.563-.438-1-1-1-.563 0-1 .437-1 1"/><path class="BarLine" stroke="#000" stroke-width=".8" stroke-linejoin="bevel" d="M394.703 63.346v72.501"/><path class="BarLine" stroke="#000" stroke-width="2.5" stroke-linejoin="bevel" d="M398.353 63.346v72.501"/><path class="BarLine" stroke="#000" stroke-width=".8" stroke-linejoin="bevel" d="M306.96 63.346v72.501M223.215 63.346v72.501M139.47 63.346v72.501"/><path class="LedgerLine" stroke="#000" stroke-width=".8" stroke-linecap="square" stroke-linejoin="bevel" d="M312.384 724.987h9.319M133.228 702.487h9.319M121.016 724.987h9.319M92.012 702.487h9.319M444.469 602.159h9.318M361.152 602.159h9.319M277.835 602.159h9.319M120.325 579.659h9.318M103.508 602.159h9.319M69.875 597.159h9.318M69.875 602.159h9.318M529.13 479.331h9.319M493.467 479.331h9.319M456.112 479.331h9.318M401.582 456.831h9.318M319.575 456.831h12.079M273.921 479.331h9.319M191.64 479.331h9.319M102.853 479.331h9.319M456.377 356.503h9.319M381.069 356.503h9.318M314.048 351.503h9.319M314.048 356.503h9.319M228.948 334.003h9.319M213.879 334.003h9.319M138.502 334.003h12.08M99.538 356.503h9.319M528.509 233.675h9.319M436.937 233.675h9.318M274.167 233.675h9.319M192.54 233.675h9.319M102.983 233.675h9.318M527.571 110.847h9.319M351.582 110.847h9.319M314.36 88.347h9.319M184.092 110.847h9.319M103.722 110.847h9.319"/><path class="Stem" stroke="#000" stroke-width=".65" stroke-linecap="round" stroke-linejoin="bevel" d="M558.688 694.315v-15.578M545.088 691.815v-14.328M517.66 730.659v16.828M523.328 689.315v-15.578M474.141 740.659v14.953M479.809 689.315v-15.578M442.935 691.815v-14.328M429.148 694.315v-15.578M314.209 725.659v16.828M319.878 691.815v-16.203M280.113 741.815v-15.578M280.113 689.315v-15.578M244.322 735.659v16.203M249.991 691.815v-16.203M223.5 728.159v16.828M202.678 735.659v16.203M208.347 694.315v-16.828M187.524 744.315v-16.203M187.524 696.815v-16.828M147.265 733.159v16.828M140.722 704.315v-16.828M122.841 725.659v16.828M106.049 733.159v16.828M99.506 701.815v-16.828M88.437 699.315v-15.578M77.368 741.815v-15.578M77.368 696.815v-14.328M548.459 612.831v16.203M530.3 605.331v16.828M512.141 612.831v16.203M499.651 621.487v-16.203M464.798 610.331v16.828M470.466 573.987v-16.828M446.294 602.831v16.828M427.789 610.331v16.828M433.458 571.487v-16.828M414.954 618.987v-15.578M414.954 573.987v-16.828M381.481 607.831v16.828M387.15 571.487v-16.828M362.977 600.331v16.828M368.646 568.987v-16.203M344.473 607.831v16.828M325.968 617.831v14.953M331.637 566.487v-15.578M298.164 610.331v16.828M298.164 565.331v14.953M279.66 602.831v16.828M285.329 566.487v-15.578M261.156 610.331v16.828M248.321 618.987v-15.578M248.321 568.987v-16.203M226.508 568.987v-14.328M208.327 612.831v16.203M213.995 566.487v-13.078M188.307 605.331v16.828M188.307 565.331v14.953M168.286 612.831v16.203M153.935 621.487v-16.203M148.266 562.831v15.578M122.15 610.331v16.828M127.818 578.987v-16.828M105.333 602.831v16.828M88.516 610.331v16.828M71.7 597.831v36.828M77.368 568.987v-16.203M548.787 485.003v16.828M530.955 477.503v16.828M513.124 485.003v16.828M495.292 477.503v32.453M457.937 480.003v16.828M463.605 451.159v-16.828M439.76 482.503v16.828M445.429 453.659v-16.828M421.583 487.503v16.828M409.075 496.159v-15.578M409.075 456.159v-16.828M376.275 490.003v16.203M358.443 482.503v16.828M340.612 490.003v16.203M328.449 498.659v-16.203M293.923 487.503v16.828M299.592 446.159v-16.203M275.746 480.003v16.828M257.57 487.503v16.828M263.238 448.659v-16.828M245.062 496.159v-15.578M245.062 451.159v-16.828M211.779 485.003v16.828M217.448 448.659v-16.828M193.465 477.503v16.828M199.134 448.659v-16.828M182.385 448.659v-16.828M165.27 485.003v16.828M146.956 495.003v14.953M152.625 448.659v-16.828M121.167 487.503v16.828M104.678 480.003v16.828M110.347 446.159v-16.203M88.189 487.503v16.828M77.368 496.159v-15.578M77.368 443.659v-15.578M550.099 367.175v16.203M555.768 323.331v-16.203M533.58 359.675v16.828M517.061 367.175v16.203M522.729 325.831v-16.828M506.21 375.831v-16.203M506.21 328.331v-16.828M474.722 364.675v16.828M480.391 325.831v-16.828M458.202 357.175v16.828M441.683 364.675v16.828M447.352 325.831v-16.828M430.833 373.331v-15.578M430.833 328.331v-16.828M399.379 362.175v16.828M405.047 325.831v-16.828M382.894 357.175v16.828M388.562 325.831v-16.828M371.814 325.831v-16.828M355.842 362.175v16.828M339.357 367.175v16.203M345.025 325.831v-16.828M315.873 349.675v21.828M315.873 309.675v18.078M301.69 314.675v15.161M287.507 317.175v14.744M273.323 359.675v16.828M273.323 319.675v14.328M259.14 367.175v16.828M264.809 325.831v-13.078M250.625 330.831v-16.037M236.442 333.331v-16.497M221.373 375.831v-16.203M221.373 335.831v-16.828M190.23 367.175v16.203M174.056 359.675v16.828M157.882 367.175v16.203M147.376 375.831v-16.203M116.195 364.675v16.828M121.864 325.831v-16.828M101.363 357.175v16.828M86.531 364.675v16.828M92.2 325.831v-16.828M77.368 373.331v-15.578M77.368 328.331v-16.828M548.476 239.347v16.828M554.145 203.003v-16.828M530.334 234.347v16.828M536.003 203.003v-16.828M519.254 203.003v-16.828M502.246 239.347v16.828M484.104 244.347v16.203M489.773 203.003v-16.828M456.783 241.847v16.828M438.762 234.347v16.828M444.43 200.503V184.3M420.74 241.847v16.828M408.388 250.503v-15.578M408.388 198.003v-15.578M375.398 244.347v16.203M381.067 200.503V184.3M357.377 236.847v16.828M339.356 244.347v16.203M345.024 203.003v-16.828M327.003 253.003V236.8M327.003 205.503v-16.828M294.013 241.847v16.828M299.682 203.003v-16.828M275.992 234.347v16.828M257.971 241.847v16.828M263.64 203.003v-16.828M245.618 250.503v-15.578M245.618 205.503v-16.828M212.507 239.347v16.828M218.176 203.003v-16.828M194.365 234.347v16.828M200.034 203.003v-16.828M183.285 203.003v-16.828M166.278 239.347v16.828M148.135 244.347v16.203M153.804 203.003v-16.828M104.808 234.347v16.828M88.944 239.347v16.828M73.08 244.347v16.203M548.007 119.019v16.828M529.396 111.519v16.828M535.065 77.674V61.471M510.785 119.019v16.828M497.842 127.675v-15.578M497.842 75.174V59.596M464.262 121.519v16.203M469.931 77.674V61.471M445.651 114.019v16.828M427.04 121.519v16.203M432.708 80.174V63.346M414.097 130.175v-16.203M414.097 82.674V65.846M372.019 119.019v16.828M353.407 111.519v16.828M334.796 119.019v16.828M321.854 127.675v-15.578M321.854 87.674V70.846M288.619 121.519v16.203M270.353 114.019v16.828M252.086 121.519v16.203M239.489 130.175v-16.203M204.528 119.019v16.828M210.197 82.674V65.846M185.917 111.519v16.828M167.306 119.019v16.828M172.975 80.174V63.346M154.363 127.675v-15.578M154.363 82.674V65.846M122.471 116.519v16.828M128.14 80.174V63.346M105.547 109.019v16.828M111.216 77.674V61.471M88.623 116.519v16.828M71.7 126.519v14.953M77.368 75.174V59.596"/><path class="Note" d="M552.694 695.721c0 1.172.953 1.969 2.297 1.969 2.078 0 4.031-1.609 4.031-3.437 0-1.172-.969-1.969-2.313-1.969-2.078 0-4.015 1.609-4.015 3.437M539.094 693.221c0 1.172.953 1.969 2.297 1.969 2.078 0 4.031-1.609 4.031-3.437 0-1.172-.968-1.969-2.312-1.969-2.078 0-4.016 1.609-4.016 3.437M517.335 730.721c0 1.172.953 1.969 2.297 1.969 2.078 0 4.031-1.609 4.031-3.437 0-1.172-.969-1.969-2.313-1.969-2.078 0-4.015 1.609-4.015 3.437M517.335 690.721c0 1.172.953 1.969 2.297 1.969 2.078 0 4.031-1.609 4.031-3.437 0-1.172-.969-1.969-2.313-1.969-2.078 0-4.015 1.609-4.015 3.437M473.816 740.721c0 1.172.953 1.969 2.297 1.969 2.078 0 4.031-1.609 4.031-3.437 0-1.172-.969-1.969-2.313-1.969-2.078 0-4.015 1.609-4.015 3.437M473.816 690.721c0 1.172.953 1.969 2.297 1.969 2.078 0 4.031-1.609 4.031-3.437 0-1.172-.969-1.969-2.313-1.969-2.078 0-4.015 1.609-4.015 3.437m.703.86c0-.969 3.234-3.547 4.484-3.547.281 0 .438.125.438.359 0 .969-3.25 3.547-4.485 3.547-.281 0-.437-.125-.437-.359M436.942 693.221c0 1.172.953 1.969 2.296 1.969 2.079 0 4.032-1.609 4.032-3.437 0-1.172-.969-1.969-2.313-1.969-2.078 0-4.015 1.609-4.015 3.437M423.154 695.721c0 1.172.954 1.969 2.297 1.969 2.078 0 4.032-1.609 4.032-3.437 0-1.172-.969-1.969-2.313-1.969-2.078 0-4.016 1.609-4.016 3.437M313.884 725.721c0 1.172.953 1.969 2.297 1.969 2.078 0 4.031-1.609 4.031-3.437 0-1.172-.969-1.969-2.312-1.969-2.078 0-4.016 1.609-4.016 3.437M313.884 693.221c0 1.172.953 1.969 2.297 1.969 2.078 0 4.031-1.609 4.031-3.437 0-1.172-.969-1.969-2.312-1.969-2.078 0-4.016 1.609-4.016 3.437m.703.86c0-.969 3.235-3.547 4.485-3.547.281 0 .437.125.437.359 0 .969-3.25 3.547-4.484 3.547-.282 0-.438-.125-.438-.359M274.119 743.221c0 1.172.953 1.969 2.297 1.969 2.078 0 4.031-1.609 4.031-3.437 0-1.172-.968-1.969-2.312-1.969-2.078 0-4.016 1.609-4.016 3.437M274.119 690.721c0 1.172.953 1.969 2.297 1.969 2.078 0 4.031-1.609 4.031-3.437 0-1.172-.968-1.969-2.312-1.969-2.078 0-4.016 1.609-4.016 3.437m.703.86c0-.969 3.235-3.547 4.485-3.547.281 0 .437.125.437.359 0 .969-3.25 3.547-4.484 3.547-.281 0-.438-.125-.438-.359M243.997 735.721c0 1.172.953 1.969 2.297 1.969 2.078 0 4.031-1.609 4.031-3.437 0-1.172-.968-1.969-2.312-1.969-2.078 0-4.016 1.609-4.016 3.437M243.997 693.221c0 1.172.953 1.969 2.297 1.969 2.078 0 4.031-1.609 4.031-3.437 0-1.172-.968-1.969-2.312-1.969-2.078 0-4.016 1.609-4.016 3.437M223.175 728.221c0 1.172.953 1.969 2.297 1.969 2.078 0 4.031-1.609 4.031-3.437 0-1.172-.969-1.969-2.312-1.969-2.079 0-4.016 1.609-4.016 3.437M202.353 735.721c0 1.172.953 1.969 2.297 1.969 2.078 0 4.031-1.609 4.031-3.437 0-1.172-.969-1.969-2.313-1.969-2.078 0-4.015 1.609-4.015 3.437M202.353 695.721c0 1.172.953 1.969 2.297 1.969 2.078 0 4.031-1.609 4.031-3.437 0-1.172-.969-1.969-2.313-1.969-2.078 0-4.015 1.609-4.015 3.437m.703.86c0-.969 3.234-3.547 4.484-3.547.282 0 .438.125.438.359 0 .969-3.25 3.547-4.485 3.547-.281 0-.437-.125-.437-.359M181.531 745.721c0 1.172.953 1.969 2.296 1.969 2.079 0 4.032-1.609 4.032-3.437 0-1.172-.969-1.969-2.313-1.969-2.078 0-4.015 1.609-4.015 3.437M181.531 698.221c0 1.172.953 1.969 2.296 1.969 2.079 0 4.032-1.609 4.032-3.437 0-1.172-.969-1.969-2.313-1.969-2.078 0-4.015 1.609-4.015 3.437M146.94 733.221c0 1.172.954 1.969 2.297 1.969 2.078 0 4.032-1.609 4.032-3.437 0-1.172-.969-1.969-2.313-1.969-2.078 0-4.016 1.609-4.016 3.437M134.728 705.721c0 1.172.953 1.969 2.297 1.969 2.078 0 4.031-1.609 4.031-3.437 0-1.172-.968-1.969-2.312-1.969-2.078 0-4.016 1.609-4.016 3.437M122.516 725.721c0 1.172.953 1.969 2.297 1.969 2.078 0 4.031-1.609 4.031-3.437 0-1.172-.969-1.969-2.312-1.969-2.078 0-4.016 1.609-4.016 3.437M105.724 733.221c0 1.172.953 1.969 2.297 1.969 2.078 0 4.031-1.609 4.031-3.437 0-1.172-.968-1.969-2.312-1.969-2.078 0-4.016 1.609-4.016 3.437M93.512 703.221c0 1.172.953 1.969 2.297 1.969 2.078 0 4.031-1.609 4.031-3.437 0-1.172-.969-1.969-2.312-1.969-2.078 0-4.016 1.609-4.016 3.437m.703.86c0-.969 3.235-3.547 4.485-3.547.28 0 .437.125.437.359 0 .969-3.25 3.547-4.484 3.547-.282 0-.438-.125-.438-.359M82.443 700.721c0 1.172.954 1.969 2.297 1.969 2.078 0 4.032-1.609 4.032-3.437 0-1.172-.97-1.969-2.313-1.969-2.078 0-4.016 1.609-4.016 3.437M71.375 743.221c0 1.172.953 1.969 2.296 1.969 2.079 0 4.032-1.609 4.032-3.437 0-1.172-.969-1.969-2.313-1.969-2.078 0-4.015 1.609-4.015 3.437M71.375 698.221c0 1.172.953 1.969 2.296 1.969 2.079 0 4.032-1.609 4.032-3.437 0-1.172-.969-1.969-2.313-1.969-2.078 0-4.015 1.609-4.015 3.437M548.134 612.893c0 1.172.954 1.969 2.297 1.969 2.078 0 4.032-1.609 4.032-3.437 0-1.172-.969-1.969-2.313-1.969-2.078 0-4.016 1.609-4.016 3.437M529.975 605.393c0 1.172.954 1.969 2.297 1.969 2.078 0 4.032-1.609 4.032-3.438 0-1.171-.969-1.968-2.313-1.968-2.078 0-4.016 1.609-4.016 3.437M511.816 612.893c0 1.172.954 1.969 2.297 1.969 2.078 0 4.032-1.609 4.032-3.437 0-1.172-.969-1.969-2.313-1.969-2.078 0-4.016 1.609-4.016 3.437M493.657 622.893c0 1.172.953 1.969 2.297 1.969 2.078 0 4.031-1.609 4.031-3.437 0-1.172-.968-1.969-2.312-1.969-2.078 0-4.016 1.609-4.016 3.437M492.277 577.159c0 1.5 2.047 2.703 4.515 2.703 2.485 0 4.563-1.203 4.563-2.703 0-1.5-2.078-2.703-4.563-2.703-2.468 0-4.515 1.203-4.515 2.703m2.5-.594c0-.984.703-1.766 1.515-1.766 1.188 0 2.563 1.5 2.563 2.954 0 .984-.703 1.765-1.516 1.765-1.187 0-2.562-1.5-2.562-2.953M464.473 610.393c0 1.172.953 1.969 2.297 1.969 2.078 0 4.031-1.609 4.031-3.438 0-1.171-.969-1.968-2.313-1.968-2.078 0-4.015 1.609-4.015 3.437M464.473 575.393c0 1.172.953 1.969 2.297 1.969 2.078 0 4.031-1.609 4.031-3.438 0-1.171-.969-1.968-2.313-1.968-2.078 0-4.015 1.609-4.015 3.437M445.969 602.893c0 1.172.953 1.969 2.296 1.969 2.079 0 4.032-1.609 4.032-3.438 0-1.171-.969-1.968-2.313-1.968-2.078 0-4.015 1.609-4.015 3.437M427.464 610.393c0 1.172.953 1.969 2.297 1.969 2.078 0 4.031-1.609 4.031-3.438 0-1.171-.968-1.968-2.312-1.968-2.078 0-4.016 1.609-4.016 3.437M427.464 572.893c0 1.172.953 1.969 2.297 1.969 2.078 0 4.031-1.609 4.031-3.438 0-1.171-.968-1.968-2.312-1.968-2.078 0-4.016 1.609-4.016 3.437m.703.86c0-.969 3.235-3.547 4.485-3.547.281 0 .437.125.437.359 0 .969-3.25 3.547-4.484 3.547-.281 0-.438-.125-.438-.359M408.96 620.393c0 1.172.953 1.969 2.297 1.969 2.078 0 4.031-1.609 4.031-3.437 0-1.172-.968-1.969-2.312-1.969-2.078 0-4.016 1.609-4.016 3.437M408.96 575.393c0 1.172.953 1.969 2.297 1.969 2.078 0 4.031-1.609 4.031-3.438 0-1.171-.968-1.968-2.312-1.968-2.078 0-4.016 1.609-4.016 3.437M381.156 607.893c0 1.172.953 1.969 2.297 1.969 2.078 0 4.031-1.609 4.031-3.438 0-1.171-.969-1.968-2.312-1.968-2.079 0-4.016 1.609-4.016 3.437M381.156 572.893c0 1.172.953 1.969 2.297 1.969 2.078 0 4.031-1.609 4.031-3.438 0-1.171-.969-1.968-2.312-1.968-2.079 0-4.016 1.609-4.016 3.437M362.652 600.393c0 1.172.953 1.969 2.297 1.969 2.078 0 4.031-1.609 4.031-3.438 0-1.171-.969-1.968-2.313-1.968-2.078 0-4.015 1.609-4.015 3.437M362.652 570.393c0 1.172.953 1.969 2.297 1.969 2.078 0 4.031-1.609 4.031-3.438 0-1.171-.969-1.968-2.313-1.968-2.078 0-4.015 1.609-4.015 3.437M344.148 607.893c0 1.172.953 1.969 2.297 1.969 2.078 0 4.031-1.609 4.031-3.438 0-1.171-.969-1.968-2.313-1.968-2.078 0-4.015 1.609-4.015 3.437M325.643 617.893c0 1.172.954 1.969 2.297 1.969 2.078 0 4.032-1.609 4.032-3.437 0-1.172-.969-1.969-2.313-1.969-2.078 0-4.016 1.609-4.016 3.437M325.643 567.893c0 1.172.954 1.969 2.297 1.969 2.078 0 4.032-1.609 4.032-3.438 0-1.171-.969-1.968-2.313-1.968-2.078 0-4.016 1.609-4.016 3.437m.704.86c0-.969 3.234-3.547 4.484-3.547.281 0 .437.125.437.359 0 .969-3.25 3.547-4.484 3.547-.281 0-.437-.125-.437-.359M297.839 610.393c0 1.172.953 1.969 2.297 1.969 2.078 0 4.031-1.609 4.031-3.438 0-1.171-.968-1.968-2.312-1.968-2.078 0-4.016 1.609-4.016 3.437M297.839 565.393c0 1.172.953 1.969 2.297 1.969 2.078 0 4.031-1.609 4.031-3.438 0-1.171-.968-1.968-2.312-1.968-2.078 0-4.016 1.609-4.016 3.437M279.335 602.893c0 1.172.953 1.969 2.297 1.969 2.078 0 4.031-1.609 4.031-3.438 0-1.171-.969-1.968-2.312-1.968-2.078 0-4.016 1.609-4.016 3.437M279.335 567.893c0 1.172.953 1.969 2.297 1.969 2.078 0 4.031-1.609 4.031-3.438 0-1.171-.969-1.968-2.312-1.968-2.078 0-4.016 1.609-4.016 3.437M260.831 610.393c0 1.172.953 1.969 2.297 1.969 2.078 0 4.031-1.609 4.031-3.438 0-1.171-.969-1.968-2.312-1.968-2.079 0-4.016 1.609-4.016 3.437M242.327 620.393c0 1.172.953 1.969 2.297 1.969 2.078 0 4.031-1.609 4.031-3.437 0-1.172-.969-1.969-2.313-1.969-2.078 0-4.015 1.609-4.015 3.437M242.327 570.393c0 1.172.953 1.969 2.297 1.969 2.078 0 4.031-1.609 4.031-3.438 0-1.171-.969-1.968-2.313-1.968-2.078 0-4.015 1.609-4.015 3.437m.703.86c0-.969 3.234-3.547 4.484-3.547.282 0 .438.125.438.359 0 .969-3.25 3.547-4.485 3.547-.281 0-.437-.125-.437-.359M220.514 570.393c0 1.172.953 1.969 2.297 1.969 2.078 0 4.031-1.609 4.031-3.438 0-1.171-.968-1.968-2.312-1.968-2.078 0-4.016 1.609-4.016 3.437M208.002 612.893c0 1.172.953 1.969 2.296 1.969 2.079 0 4.032-1.609 4.032-3.437 0-1.172-.969-1.969-2.313-1.969-2.078 0-4.015 1.609-4.015 3.437M208.002 567.893c0 1.172.953 1.969 2.296 1.969 2.079 0 4.032-1.609 4.032-3.438 0-1.171-.969-1.968-2.313-1.968-2.078 0-4.015 1.609-4.015 3.437M187.982 605.393c0 1.172.953 1.969 2.296 1.969 2.079 0 4.032-1.609 4.032-3.438 0-1.171-.969-1.968-2.313-1.968-2.078 0-4.015 1.609-4.015 3.437M187.982 565.393c0 1.172.953 1.969 2.296 1.969 2.079 0 4.032-1.609 4.032-3.438 0-1.171-.969-1.968-2.313-1.968-2.078 0-4.015 1.609-4.015 3.437M167.961 612.893c0 1.172.954 1.969 2.297 1.969 2.078 0 4.032-1.609 4.032-3.437 0-1.172-.969-1.969-2.313-1.969-2.078 0-4.016 1.609-4.016 3.437M147.941 622.893c0 1.172.953 1.969 2.297 1.969 2.078 0 4.031-1.609 4.031-3.437 0-1.172-.968-1.969-2.312-1.969-2.078 0-4.016 1.609-4.016 3.437M147.941 562.893c0 1.172.953 1.969 2.297 1.969 2.078 0 4.031-1.609 4.031-3.438 0-1.171-.968-1.968-2.312-1.968-2.078 0-4.016 1.609-4.016 3.437m.703.86c0-.969 3.235-3.547 4.485-3.547.281 0 .437.125.437.359 0 .969-3.25 3.547-4.484 3.547-.281 0-.438-.125-.438-.359M121.825 610.393c0 1.172.953 1.969 2.296 1.969 2.079 0 4.032-1.609 4.032-3.438 0-1.171-.969-1.968-2.313-1.968-2.078 0-4.015 1.609-4.015 3.437M121.825 580.393c0 1.172.953 1.969 2.296 1.969 2.079 0 4.032-1.609 4.032-3.438 0-1.171-.969-1.968-2.313-1.968-2.078 0-4.015 1.609-4.015 3.437M105.008 602.893c0 1.172.953 1.969 2.297 1.969 2.078 0 4.031-1.609 4.031-3.438 0-1.171-.969-1.968-2.312-1.968-2.079 0-4.016 1.609-4.016 3.437M88.191 610.393c0 1.172.953 1.969 2.297 1.969 2.078 0 4.031-1.609 4.031-3.438 0-1.171-.968-1.968-2.312-1.968-2.078 0-4.016 1.609-4.016 3.437M71.375 597.893c0 1.172.953 1.969 2.296 1.969 2.079 0 4.032-1.609 4.032-3.438 0-1.171-.969-1.968-2.313-1.968-2.078 0-4.015 1.609-4.015 3.437M71.375 620.393c0 1.172.953 1.969 2.296 1.969 2.079 0 4.032-1.609 4.032-3.437 0-1.172-.969-1.969-2.313-1.969-2.078 0-4.015 1.609-4.015 3.437M71.375 570.393c0 1.172.953 1.969 2.296 1.969 2.079 0 4.032-1.609 4.032-3.438 0-1.171-.969-1.968-2.313-1.968-2.078 0-4.015 1.609-4.015 3.437m.703.86c0-.969 3.234-3.547 4.484-3.547.281 0 .438.125.438.359 0 .969-3.25 3.547-4.485 3.547-.281 0-.437-.125-.437-.359M548.462 485.065c0 1.172.953 1.969 2.297 1.969 2.078 0 4.031-1.609 4.031-3.438 0-1.171-.969-1.968-2.312-1.968-2.079 0-4.016 1.609-4.016 3.437M530.63 477.565c0 1.172.954 1.969 2.297 1.969 2.078 0 4.032-1.609 4.032-3.438 0-1.171-.969-1.968-2.313-1.968-2.078 0-4.016 1.609-4.016 3.437M512.799 485.065c0 1.172.953 1.969 2.297 1.969 2.078 0 4.031-1.609 4.031-3.438 0-1.171-.969-1.968-2.313-1.968-2.078 0-4.015 1.609-4.015 3.437M494.967 477.565c0 1.172.953 1.969 2.297 1.969 2.078 0 4.031-1.609 4.031-3.438 0-1.171-.968-1.968-2.312-1.968-2.078 0-4.016 1.609-4.016 3.437M494.967 495.065c0 1.172.953 1.969 2.297 1.969 2.078 0 4.031-1.609 4.031-3.438 0-1.171-.968-1.968-2.312-1.968-2.078 0-4.016 1.609-4.016 3.437M493.587 449.331c0 1.5 2.047 2.703 4.515 2.703 2.485 0 4.563-1.203 4.563-2.703 0-1.5-2.078-2.703-4.563-2.703-2.468 0-4.515 1.203-4.515 2.703m2.5-.594c0-.984.703-1.766 1.515-1.766 1.188 0 2.563 1.5 2.563 2.954 0 .984-.703 1.765-1.516 1.765-1.187 0-2.562-1.5-2.562-2.953M457.612 480.065c0 1.172.953 1.969 2.296 1.969 2.079 0 4.032-1.609 4.032-3.438 0-1.171-.969-1.968-2.313-1.968-2.078 0-4.015 1.609-4.015 3.437M457.612 452.565c0 1.172.953 1.969 2.296 1.969 2.079 0 4.032-1.609 4.032-3.438 0-1.171-.969-1.968-2.313-1.968-2.078 0-4.015 1.609-4.015 3.437M439.435 482.565c0 1.172.953 1.969 2.297 1.969 2.078 0 4.031-1.609 4.031-3.438 0-1.171-.969-1.968-2.312-1.968-2.079 0-4.016 1.609-4.016 3.437M439.435 455.065c0 1.172.953 1.969 2.297 1.969 2.078 0 4.031-1.609 4.031-3.438 0-1.171-.969-1.968-2.312-1.968-2.079 0-4.016 1.609-4.016 3.437M421.258 487.565c0 1.172.953 1.969 2.297 1.969 2.078 0 4.031-1.609 4.031-3.438 0-1.171-.968-1.968-2.312-1.968-2.078 0-4.016 1.609-4.016 3.437M403.082 497.565c0 1.172.953 1.969 2.296 1.969 2.079 0 4.032-1.609 4.032-3.438 0-1.171-.969-1.968-2.313-1.968-2.078 0-4.015 1.609-4.015 3.437M403.082 457.565c0 1.172.953 1.969 2.296 1.969 2.079 0 4.032-1.609 4.032-3.438 0-1.171-.969-1.968-2.313-1.968-2.078 0-4.015 1.609-4.015 3.437m.703.86c0-.969 3.234-3.547 4.484-3.547.281 0 .438.125.438.359 0 .969-3.25 3.547-4.485 3.547-.281 0-.437-.125-.437-.359M375.95 490.065c0 1.172.953 1.969 2.297 1.969 2.078 0 4.031-1.609 4.031-3.438 0-1.171-.969-1.968-2.312-1.968-2.079 0-4.016 1.609-4.016 3.437M358.118 482.565c0 1.172.953 1.969 2.297 1.969 2.078 0 4.031-1.609 4.031-3.438 0-1.171-.968-1.968-2.312-1.968-2.078 0-4.016 1.609-4.016 3.437M340.287 490.065c0 1.172.953 1.969 2.297 1.969 2.078 0 4.031-1.609 4.031-3.438 0-1.171-.969-1.968-2.313-1.968-2.078 0-4.015 1.609-4.015 3.437M322.455 500.065c0 1.172.953 1.969 2.297 1.969 2.078 0 4.031-1.609 4.031-3.438 0-1.171-.968-1.968-2.312-1.968-2.078 0-4.016 1.609-4.016 3.437M321.075 456.831c0 1.5 2.047 2.703 4.515 2.703 2.485 0 4.563-1.203 4.563-2.703 0-1.5-2.078-2.703-4.563-2.703-2.468 0-4.515 1.203-4.515 2.703m2.5-.594c0-.984.703-1.766 1.515-1.766 1.188 0 2.563 1.5 2.563 2.954 0 .984-.703 1.765-1.516 1.765-1.187 0-2.562-1.5-2.562-2.953M293.598 487.565c0 1.172.953 1.969 2.297 1.969 2.078 0 4.031-1.609 4.031-3.438 0-1.171-.969-1.968-2.312-1.968-2.079 0-4.016 1.609-4.016 3.437M293.598 447.565c0 1.172.953 1.969 2.297 1.969 2.078 0 4.031-1.609 4.031-3.438 0-1.171-.969-1.968-2.312-1.968-2.079 0-4.016 1.609-4.016 3.437M275.421 480.065c0 1.172.953 1.969 2.297 1.969 2.078 0 4.031-1.609 4.031-3.438 0-1.171-.968-1.968-2.312-1.968-2.078 0-4.016 1.609-4.016 3.437M257.245 487.565c0 1.172.953 1.969 2.296 1.969 2.079 0 4.032-1.609 4.032-3.438 0-1.171-.969-1.968-2.313-1.968-2.078 0-4.015 1.609-4.015 3.437M257.245 450.065c0 1.172.953 1.969 2.296 1.969 2.079 0 4.032-1.609 4.032-3.438 0-1.171-.969-1.968-2.313-1.968-2.078 0-4.015 1.609-4.015 3.437m.703.86c0-.969 3.234-3.547 4.484-3.547.281 0 .438.125.438.359 0 .969-3.25 3.547-4.485 3.547-.281 0-.437-.125-.437-.359M239.068 497.565c0 1.172.953 1.969 2.297 1.969 2.078 0 4.031-1.609 4.031-3.438 0-1.171-.969-1.968-2.312-1.968-2.079 0-4.016 1.609-4.016 3.437M239.068 452.565c0 1.172.953 1.969 2.297 1.969 2.078 0 4.031-1.609 4.031-3.438 0-1.171-.969-1.968-2.312-1.968-2.079 0-4.016 1.609-4.016 3.437M211.454 485.065c0 1.172.953 1.969 2.297 1.969 2.078 0 4.031-1.609 4.031-3.438 0-1.171-.969-1.968-2.312-1.968-2.079 0-4.016 1.609-4.016 3.437M211.454 450.065c0 1.172.953 1.969 2.297 1.969 2.078 0 4.031-1.609 4.031-3.438 0-1.171-.969-1.968-2.312-1.968-2.079 0-4.016 1.609-4.016 3.437M193.14 477.565c0 1.172.953 1.969 2.297 1.969 2.078 0 4.031-1.609 4.031-3.438 0-1.171-.969-1.968-2.312-1.968-2.078 0-4.016 1.609-4.016 3.437M193.14 450.065c0 1.172.953 1.969 2.297 1.969 2.078 0 4.031-1.609 4.031-3.438 0-1.171-.969-1.968-2.312-1.968-2.078 0-4.016 1.609-4.016 3.437M176.392 450.065c0 1.172.953 1.969 2.296 1.969 2.079 0 4.032-1.609 4.032-3.438 0-1.171-.969-1.968-2.313-1.968-2.078 0-4.015 1.609-4.015 3.437M164.945 485.065c0 1.172.953 1.969 2.297 1.969 2.078 0 4.031-1.609 4.031-3.438 0-1.171-.968-1.968-2.312-1.968-2.078 0-4.016 1.609-4.016 3.437M146.631 495.065c0 1.172.954 1.969 2.297 1.969 2.078 0 4.032-1.609 4.032-3.438 0-1.171-.969-1.968-2.313-1.968-2.078 0-4.016 1.609-4.016 3.437M146.631 450.065c0 1.172.954 1.969 2.297 1.969 2.078 0 4.032-1.609 4.032-3.438 0-1.171-.969-1.968-2.313-1.968-2.078 0-4.016 1.609-4.016 3.437M120.842 487.565c0 1.172.953 1.969 2.297 1.969 2.078 0 4.031-1.609 4.031-3.438 0-1.171-.968-1.968-2.312-1.968-2.078 0-4.016 1.609-4.016 3.437M104.353 480.065c0 1.172.953 1.969 2.297 1.969 2.078 0 4.031-1.609 4.031-3.438 0-1.171-.969-1.968-2.312-1.968-2.079 0-4.016 1.609-4.016 3.437M104.353 447.565c0 1.172.953 1.969 2.297 1.969 2.078 0 4.031-1.609 4.031-3.438 0-1.171-.969-1.968-2.312-1.968-2.079 0-4.016 1.609-4.016 3.437m.703.86c0-.969 3.234-3.547 4.484-3.547.282 0 .438.125.438.359 0 .969-3.25 3.547-4.484 3.547-.282 0-.438-.125-.438-.359M87.864 487.565c0 1.172.953 1.969 2.297 1.969 2.078 0 4.03-1.609 4.03-3.438 0-1.171-.968-1.968-2.312-1.968-2.078 0-4.015 1.609-4.015 3.437M71.375 497.565c0 1.172.953 1.969 2.296 1.969 2.079 0 4.032-1.609 4.032-3.438 0-1.171-.969-1.968-2.313-1.968-2.078 0-4.015 1.609-4.015 3.437M71.375 445.065c0 1.172.953 1.969 2.296 1.969 2.079 0 4.032-1.609 4.032-3.438 0-1.171-.969-1.968-2.313-1.968-2.078 0-4.015 1.609-4.015 3.437m.703.86c0-.969 3.234-3.547 4.484-3.547.281 0 .438.125.438.359 0 .969-3.25 3.547-4.485 3.547-.281 0-.437-.125-.437-.359M549.774 367.237c0 1.172.953 1.969 2.297 1.969 2.078 0 4.031-1.61 4.031-3.438 0-1.172-.968-1.968-2.312-1.968-2.078 0-4.016 1.609-4.016 3.437M549.774 324.737c0 1.172.953 1.969 2.297 1.969 2.078 0 4.031-1.61 4.031-3.438 0-1.172-.968-1.968-2.312-1.968-2.078 0-4.016 1.609-4.016 3.437M533.255 359.737c0 1.172.953 1.969 2.297 1.969 2.078 0 4.031-1.61 4.031-3.438 0-1.172-.969-1.968-2.313-1.968-2.078 0-4.015 1.609-4.015 3.437M516.736 367.237c0 1.172.953 1.969 2.296 1.969 2.079 0 4.032-1.61 4.032-3.438 0-1.172-.969-1.968-2.313-1.968-2.078 0-4.015 1.609-4.015 3.437M516.736 327.237c0 1.172.953 1.969 2.296 1.969 2.079 0 4.032-1.61 4.032-3.438 0-1.172-.969-1.968-2.313-1.968-2.078 0-4.015 1.609-4.015 3.437m.703.859c0-.968 3.234-3.546 4.484-3.546.281 0 .438.125.438.359 0 .969-3.25 3.547-4.485 3.547-.281 0-.437-.125-.437-.36M500.216 377.237c0 1.172.953 1.969 2.297 1.969 2.078 0 4.031-1.61 4.031-3.438 0-1.172-.968-1.968-2.312-1.968-2.078 0-4.016 1.609-4.016 3.437M500.216 329.737c0 1.172.953 1.969 2.297 1.969 2.078 0 4.031-1.61 4.031-3.438 0-1.172-.968-1.968-2.312-1.968-2.078 0-4.016 1.609-4.016 3.437M474.397 364.737c0 1.172.953 1.969 2.297 1.969 2.078 0 4.031-1.61 4.031-3.438 0-1.172-.969-1.968-2.313-1.968-2.078 0-4.015 1.609-4.015 3.437M474.397 327.237c0 1.172.953 1.969 2.297 1.969 2.078 0 4.031-1.61 4.031-3.438 0-1.172-.969-1.968-2.313-1.968-2.078 0-4.015 1.609-4.015 3.437M457.877 357.237c0 1.172.954 1.969 2.297 1.969 2.078 0 4.032-1.61 4.032-3.438 0-1.172-.969-1.968-2.313-1.968-2.078 0-4.016 1.609-4.016 3.437M441.358 364.737c0 1.172.953 1.969 2.297 1.969 2.078 0 4.031-1.61 4.031-3.438 0-1.172-.968-1.968-2.312-1.968-2.078 0-4.016 1.609-4.016 3.437M441.358 327.237c0 1.172.953 1.969 2.297 1.969 2.078 0 4.031-1.61 4.031-3.438 0-1.172-.968-1.968-2.312-1.968-2.078 0-4.016 1.609-4.016 3.437m.703.859c0-.968 3.235-3.546 4.485-3.546.281 0 .437.125.437.359 0 .969-3.25 3.547-4.484 3.547-.281 0-.438-.125-.438-.36M424.839 374.737c0 1.172.953 1.969 2.297 1.969 2.078 0 4.031-1.61 4.031-3.438 0-1.172-.969-1.968-2.313-1.968-2.078 0-4.015 1.609-4.015 3.437M424.839 329.737c0 1.172.953 1.969 2.297 1.969 2.078 0 4.031-1.61 4.031-3.438 0-1.172-.969-1.968-2.313-1.968-2.078 0-4.015 1.609-4.015 3.437M399.054 362.237c0 1.172.953 1.969 2.297 1.969 2.078 0 4.031-1.61 4.031-3.438 0-1.172-.969-1.968-2.313-1.968-2.078 0-4.015 1.609-4.015 3.437M399.054 327.237c0 1.172.953 1.969 2.297 1.969 2.078 0 4.031-1.61 4.031-3.438 0-1.172-.969-1.968-2.313-1.968-2.078 0-4.015 1.609-4.015 3.437M382.569 357.237c0 1.172.953 1.969 2.296 1.969 2.079 0 4.032-1.61 4.032-3.438 0-1.172-.969-1.968-2.313-1.968-2.078 0-4.015 1.609-4.015 3.437M382.569 327.237c0 1.172.953 1.969 2.296 1.969 2.079 0 4.032-1.61 4.032-3.438 0-1.172-.969-1.968-2.313-1.968-2.078 0-4.015 1.609-4.015 3.437M365.82 327.237c0 1.172.953 1.969 2.297 1.969 2.078 0 4.031-1.61 4.031-3.438 0-1.172-.969-1.968-2.312-1.968-2.078 0-4.016 1.609-4.016 3.437M355.517 362.237c0 1.172.953 1.969 2.297 1.969 2.078 0 4.031-1.61 4.031-3.438 0-1.172-.969-1.968-2.312-1.968-2.079 0-4.016 1.609-4.016 3.437M339.032 367.237c0 1.172.953 1.969 2.297 1.969 2.078 0 4.031-1.61 4.031-3.438 0-1.172-.969-1.968-2.313-1.968-2.078 0-4.015 1.609-4.015 3.437M339.032 327.237c0 1.172.953 1.969 2.297 1.969 2.078 0 4.031-1.61 4.031-3.438 0-1.172-.969-1.968-2.313-1.968-2.078 0-4.015 1.609-4.015 3.437M315.548 349.737c0 1.172.953 1.969 2.297 1.969 2.078 0 4.031-1.61 4.031-3.438 0-1.172-.968-1.968-2.312-1.968-2.078 0-4.016 1.609-4.016 3.437M315.548 309.737c0 1.172.953 1.969 2.297 1.969 2.078 0 4.031-1.61 4.031-3.438 0-1.172-.968-1.968-2.312-1.968-2.078 0-4.016 1.609-4.016 3.437M301.365 314.737c0 1.172.953 1.969 2.297 1.969 2.078 0 4.031-1.61 4.031-3.438 0-1.172-.969-1.968-2.312-1.968-2.079 0-4.016 1.609-4.016 3.437M287.182 317.237c0 1.172.953 1.969 2.296 1.969 2.079 0 4.032-1.61 4.032-3.438 0-1.172-.969-1.968-2.313-1.968-2.078 0-4.015 1.609-4.015 3.437M272.998 359.737c0 1.172.953 1.969 2.297 1.969 2.078 0 4.031-1.61 4.031-3.438 0-1.172-.968-1.968-2.312-1.968-2.078 0-4.016 1.609-4.016 3.437M272.998 319.737c0 1.172.953 1.969 2.297 1.969 2.078 0 4.031-1.61 4.031-3.438 0-1.172-.968-1.968-2.312-1.968-2.078 0-4.016 1.609-4.016 3.437M258.815 367.237c0 1.172.953 1.969 2.297 1.969 2.078 0 4.031-1.61 4.031-3.438 0-1.172-.969-1.968-2.313-1.968-2.078 0-4.015 1.609-4.015 3.437M258.815 327.237c0 1.172.953 1.969 2.297 1.969 2.078 0 4.031-1.61 4.031-3.438 0-1.172-.969-1.968-2.313-1.968-2.078 0-4.015 1.609-4.015 3.437M244.631 332.237c0 1.172.954 1.969 2.297 1.969 2.078 0 4.032-1.61 4.032-3.438 0-1.172-.969-1.968-2.313-1.968-2.078 0-4.016 1.609-4.016 3.437M230.448 334.737c0 1.172.953 1.969 2.297 1.969 2.078 0 4.031-1.61 4.031-3.438 0-1.172-.969-1.968-2.312-1.968-2.078 0-4.016 1.609-4.016 3.437M215.379 377.237c0 1.172.953 1.969 2.297 1.969 2.078 0 4.031-1.61 4.031-3.438 0-1.172-.968-1.968-2.312-1.968-2.078 0-4.016 1.609-4.016 3.437M215.379 337.237c0 1.172.953 1.969 2.297 1.969 2.078 0 4.031-1.61 4.031-3.438 0-1.172-.968-1.968-2.312-1.968-2.078 0-4.016 1.609-4.016 3.437M189.905 367.237c0 1.172.953 1.969 2.297 1.969 2.078 0 4.031-1.61 4.031-3.438 0-1.172-.969-1.968-2.312-1.968-2.078 0-4.016 1.609-4.016 3.437M173.731 359.737c0 1.172.953 1.969 2.297 1.969 2.078 0 4.031-1.61 4.031-3.438 0-1.172-.969-1.968-2.312-1.968-2.079 0-4.016 1.609-4.016 3.437M157.557 367.237c0 1.172.953 1.969 2.297 1.969 2.078 0 4.031-1.61 4.031-3.438 0-1.172-.969-1.968-2.313-1.968-2.078 0-4.015 1.609-4.015 3.437M141.382 377.237c0 1.172.954 1.969 2.297 1.969 2.078 0 4.032-1.61 4.032-3.438 0-1.172-.969-1.968-2.313-1.968-2.078 0-4.016 1.609-4.016 3.437M140.002 334.003c0 1.5 2.047 2.703 4.516 2.703 2.484 0 4.562-1.203 4.562-2.703 0-1.5-2.078-2.703-4.562-2.703-2.469 0-4.516 1.203-4.516 2.703m2.5-.594c0-.984.703-1.766 1.516-1.766 1.187 0 2.562 1.5 2.562 2.953 0 .985-.703 1.766-1.516 1.766-1.187 0-2.562-1.5-2.562-2.953M115.87 364.737c0 1.172.953 1.969 2.297 1.969 2.078 0 4.031-1.61 4.031-3.438 0-1.172-.969-1.968-2.312-1.968-2.078 0-4.016 1.609-4.016 3.437M115.87 327.237c0 1.172.953 1.969 2.297 1.969 2.078 0 4.031-1.61 4.031-3.438 0-1.172-.969-1.968-2.312-1.968-2.078 0-4.016 1.609-4.016 3.437M101.038 357.237c0 1.172.953 1.969 2.297 1.969 2.078 0 4.031-1.61 4.031-3.438 0-1.172-.968-1.968-2.312-1.968-2.078 0-4.016 1.609-4.016 3.437M86.206 364.737c0 1.172.954 1.969 2.297 1.969 2.078 0 4.032-1.61 4.032-3.438 0-1.172-.97-1.968-2.313-1.968-2.078 0-4.016 1.609-4.016 3.437M86.206 327.237c0 1.172.954 1.969 2.297 1.969 2.078 0 4.032-1.61 4.032-3.438 0-1.172-.97-1.968-2.313-1.968-2.078 0-4.016 1.609-4.016 3.437m.704.859c0-.968 3.234-3.546 4.484-3.546.281 0 .437.125.437.359 0 .969-3.25 3.547-4.484 3.547-.281 0-.437-.125-.437-.36M71.375 374.737c0 1.172.953 1.969 2.296 1.969 2.079 0 4.032-1.61 4.032-3.438 0-1.172-.969-1.968-2.313-1.968-2.078 0-4.015 1.609-4.015 3.437M71.375 329.737c0 1.172.953 1.969 2.296 1.969 2.079 0 4.032-1.61 4.032-3.438 0-1.172-.969-1.968-2.313-1.968-2.078 0-4.015 1.609-4.015 3.437M548.151 239.409c0 1.172.953 1.969 2.297 1.969 2.078 0 4.031-1.61 4.031-3.438 0-1.172-.968-1.969-2.312-1.969-2.078 0-4.016 1.61-4.016 3.438M548.151 204.409c0 1.172.953 1.969 2.297 1.969 2.078 0 4.031-1.61 4.031-3.438 0-1.172-.968-1.969-2.312-1.969-2.078 0-4.016 1.61-4.016 3.438M530.009 234.409c0 1.172.953 1.969 2.297 1.969 2.078 0 4.031-1.61 4.031-3.438 0-1.172-.969-1.969-2.313-1.969-2.078 0-4.015 1.61-4.015 3.438M530.009 204.409c0 1.172.953 1.969 2.297 1.969 2.078 0 4.031-1.61 4.031-3.438 0-1.172-.969-1.969-2.313-1.969-2.078 0-4.015 1.61-4.015 3.438M513.26 204.409c0 1.172.954 1.969 2.297 1.969 2.078 0 4.032-1.61 4.032-3.438 0-1.172-.969-1.969-2.313-1.969-2.078 0-4.016 1.61-4.016 3.438M501.921 239.409c0 1.172.954 1.969 2.297 1.969 2.078 0 4.032-1.61 4.032-3.438 0-1.172-.969-1.969-2.313-1.969-2.078 0-4.016 1.61-4.016 3.438M483.779 244.409c0 1.172.953 1.969 2.297 1.969 2.078 0 4.031-1.61 4.031-3.438 0-1.172-.969-1.969-2.312-1.969-2.078 0-4.016 1.61-4.016 3.438M483.779 204.409c0 1.172.953 1.969 2.297 1.969 2.078 0 4.031-1.61 4.031-3.438 0-1.172-.969-1.969-2.312-1.969-2.078 0-4.016 1.61-4.016 3.438M456.458 241.909c0 1.172.953 1.969 2.297 1.969 2.078 0 4.031-1.61 4.031-3.438 0-1.172-.969-1.969-2.313-1.969-2.078 0-4.015 1.61-4.015 3.438M438.437 234.409c0 1.172.953 1.969 2.297 1.969 2.078 0 4.031-1.61 4.031-3.438 0-1.172-.969-1.969-2.313-1.969-2.078 0-4.015 1.61-4.015 3.438M438.437 201.909c0 1.172.953 1.969 2.297 1.969 2.078 0 4.031-1.61 4.031-3.438 0-1.172-.969-1.969-2.313-1.969-2.078 0-4.015 1.61-4.015 3.438m.703.859c0-.968 3.234-3.547 4.484-3.547.281 0 .438.125.438.36 0 .969-3.25 3.547-4.485 3.547-.281 0-.437-.125-.437-.36M420.415 241.909c0 1.172.954 1.969 2.297 1.969 2.078 0 4.032-1.61 4.032-3.438 0-1.172-.969-1.969-2.313-1.969-2.078 0-4.016 1.61-4.016 3.438M402.394 251.909c0 1.172.953 1.969 2.297 1.969 2.078 0 4.031-1.61 4.031-3.438 0-1.172-.968-1.969-2.312-1.969-2.078 0-4.016 1.61-4.016 3.438M402.394 199.409c0 1.172.953 1.969 2.297 1.969 2.078 0 4.031-1.61 4.031-3.438 0-1.172-.968-1.969-2.312-1.969-2.078 0-4.016 1.61-4.016 3.438m.703.859c0-.968 3.235-3.547 4.485-3.547.281 0 .437.125.437.36 0 .969-3.25 3.547-4.484 3.547-.281 0-.438-.125-.438-.36M375.073 244.409c0 1.172.953 1.969 2.297 1.969 2.078 0 4.031-1.61 4.031-3.438 0-1.172-.969-1.969-2.312-1.969-2.078 0-4.016 1.61-4.016 3.438M375.073 201.909c0 1.172.953 1.969 2.297 1.969 2.078 0 4.031-1.61 4.031-3.438 0-1.172-.969-1.969-2.312-1.969-2.078 0-4.016 1.61-4.016 3.438M357.052 236.909c0 1.172.953 1.969 2.297 1.969 2.078 0 4.031-1.61 4.031-3.438 0-1.172-.969-1.969-2.313-1.969-2.078 0-4.015 1.61-4.015 3.438M339.031 244.409c0 1.172.953 1.969 2.297 1.969 2.078 0 4.031-1.61 4.031-3.438 0-1.172-.969-1.969-2.313-1.969-2.078 0-4.015 1.61-4.015 3.438M339.031 204.409c0 1.172.953 1.969 2.297 1.969 2.078 0 4.031-1.61 4.031-3.438 0-1.172-.969-1.969-2.313-1.969-2.078 0-4.015 1.61-4.015 3.438m.703.859c0-.968 3.234-3.547 4.484-3.547.281 0 .438.125.438.36 0 .969-3.25 3.547-4.485 3.547-.281 0-.437-.125-.437-.36M321.009 254.409c0 1.172.954 1.969 2.297 1.969 2.078 0 4.032-1.61 4.032-3.438 0-1.172-.969-1.969-2.313-1.969-2.078 0-4.016 1.61-4.016 3.438M321.009 206.909c0 1.172.954 1.969 2.297 1.969 2.078 0 4.032-1.61 4.032-3.438 0-1.172-.969-1.969-2.313-1.969-2.078 0-4.016 1.61-4.016 3.438M293.688 241.909c0 1.172.953 1.969 2.297 1.969 2.078 0 4.031-1.61 4.031-3.438 0-1.172-.968-1.969-2.312-1.969-2.078 0-4.016 1.61-4.016 3.438M293.688 204.409c0 1.172.953 1.969 2.297 1.969 2.078 0 4.031-1.61 4.031-3.438 0-1.172-.968-1.969-2.312-1.969-2.078 0-4.016 1.61-4.016 3.438M275.667 234.409c0 1.172.953 1.969 2.297 1.969 2.078 0 4.031-1.61 4.031-3.438 0-1.172-.969-1.969-2.312-1.969-2.078 0-4.016 1.61-4.016 3.438M257.646 241.909c0 1.172.953 1.969 2.297 1.969 2.078 0 4.031-1.61 4.031-3.438 0-1.172-.969-1.969-2.313-1.969-2.078 0-4.015 1.61-4.015 3.438M257.646 204.409c0 1.172.953 1.969 2.297 1.969 2.078 0 4.031-1.61 4.031-3.438 0-1.172-.969-1.969-2.313-1.969-2.078 0-4.015 1.61-4.015 3.438m.703.859c0-.968 3.234-3.547 4.484-3.547.282 0 .438.125.438.36 0 .969-3.25 3.547-4.485 3.547-.281 0-.437-.125-.437-.36M239.625 251.909c0 1.172.953 1.969 2.297 1.969 2.078 0 4.031-1.61 4.031-3.438 0-1.172-.969-1.969-2.313-1.969-2.078 0-4.015 1.61-4.015 3.438M239.625 206.909c0 1.172.953 1.969 2.297 1.969 2.078 0 4.031-1.61 4.031-3.438 0-1.172-.969-1.969-2.313-1.969-2.078 0-4.015 1.61-4.015 3.438M212.182 239.409c0 1.172.953 1.969 2.297 1.969 2.078 0 4.031-1.61 4.031-3.438 0-1.172-.968-1.969-2.312-1.969-2.078 0-4.016 1.61-4.016 3.438M212.182 204.409c0 1.172.953 1.969 2.297 1.969 2.078 0 4.031-1.61 4.031-3.438 0-1.172-.968-1.969-2.312-1.969-2.078 0-4.016 1.61-4.016 3.438M194.04 234.409c0 1.172.953 1.969 2.297 1.969 2.078 0 4.031-1.61 4.031-3.438 0-1.172-.969-1.969-2.312-1.969-2.079 0-4.016 1.61-4.016 3.438M194.04 204.409c0 1.172.953 1.969 2.297 1.969 2.078 0 4.031-1.61 4.031-3.438 0-1.172-.969-1.969-2.312-1.969-2.079 0-4.016 1.61-4.016 3.438M177.292 204.409c0 1.172.953 1.969 2.296 1.969 2.079 0 4.032-1.61 4.032-3.438 0-1.172-.969-1.969-2.313-1.969-2.078 0-4.015 1.61-4.015 3.438M165.953 239.409c0 1.172.953 1.969 2.296 1.969 2.079 0 4.032-1.61 4.032-3.438 0-1.172-.969-1.969-2.313-1.969-2.078 0-4.015 1.61-4.015 3.438M147.81 244.409c0 1.172.953 1.969 2.297 1.969 2.078 0 4.031-1.61 4.031-3.438 0-1.172-.968-1.969-2.312-1.969-2.078 0-4.016 1.61-4.016 3.438M147.81 204.409c0 1.172.953 1.969 2.297 1.969 2.078 0 4.031-1.61 4.031-3.438 0-1.172-.968-1.969-2.312-1.969-2.078 0-4.016 1.61-4.016 3.438M104.483 234.409c0 1.172.953 1.969 2.296 1.969 2.079 0 4.032-1.61 4.032-3.438 0-1.172-.969-1.969-2.313-1.969-2.078 0-4.015 1.61-4.015 3.438M88.619 239.409c0 1.172.953 1.969 2.297 1.969 2.078 0 4.031-1.61 4.031-3.438 0-1.172-.969-1.969-2.313-1.969-2.078 0-4.015 1.61-4.015 3.438M72.755 244.409c0 1.172.953 1.969 2.297 1.969 2.078 0 4.031-1.61 4.031-3.438 0-1.172-.969-1.969-2.312-1.969-2.078 0-4.016 1.61-4.016 3.438M71.375 203.675c0 1.5 2.046 2.703 4.515 2.703 2.485 0 4.563-1.203 4.563-2.703 0-1.5-2.078-2.704-4.563-2.704-2.469 0-4.515 1.204-4.515 2.704m2.5-.594c0-.985.703-1.766 1.515-1.766 1.188 0 2.563 1.5 2.563 2.953 0 .985-.703 1.766-1.516 1.766-1.187 0-2.562-1.5-2.562-2.953M547.682 119.081c0 1.172.953 1.969 2.297 1.969 2.078 0 4.031-1.61 4.031-3.438 0-1.172-.968-1.969-2.312-1.969-2.078 0-4.016 1.61-4.016 3.438M529.071 111.581c0 1.172.953 1.969 2.297 1.969 2.078 0 4.031-1.61 4.031-3.438 0-1.172-.969-1.969-2.312-1.969-2.078 0-4.016 1.61-4.016 3.438M529.071 79.08c0 1.173.953 1.97 2.297 1.97 2.078 0 4.031-1.61 4.031-3.438 0-1.172-.969-1.969-2.312-1.969-2.078 0-4.016 1.61-4.016 3.438m.703.86c0-.97 3.235-3.548 4.485-3.548.281 0 .437.125.437.36 0 .969-3.25 3.547-4.484 3.547-.282 0-.438-.125-.438-.36M510.46 119.081c0 1.172.953 1.969 2.297 1.969 2.078 0 4.031-1.61 4.031-3.438 0-1.172-.969-1.969-2.313-1.969-2.078 0-4.015 1.61-4.015 3.438M491.848 129.081c0 1.172.954 1.969 2.297 1.969 2.078 0 4.032-1.61 4.032-3.438 0-1.172-.969-1.969-2.313-1.969-2.078 0-4.016 1.61-4.016 3.438M491.848 76.58c0 1.173.954 1.97 2.297 1.97 2.078 0 4.032-1.61 4.032-3.438 0-1.172-.969-1.969-2.313-1.969-2.078 0-4.016 1.61-4.016 3.438m.704.86c0-.97 3.234-3.548 4.484-3.548.281 0 .437.125.437.36 0 .969-3.25 3.547-4.484 3.547-.281 0-.437-.125-.437-.36M463.937 121.581c0 1.172.953 1.969 2.297 1.969 2.078 0 4.031-1.61 4.031-3.438 0-1.172-.968-1.969-2.312-1.969-2.078 0-4.016 1.61-4.016 3.438M463.937 79.08c0 1.173.953 1.97 2.297 1.97 2.078 0 4.031-1.61 4.031-3.438 0-1.172-.968-1.969-2.312-1.969-2.078 0-4.016 1.61-4.016 3.438M445.326 114.081c0 1.172.953 1.969 2.297 1.969 2.078 0 4.031-1.61 4.031-3.438 0-1.172-.969-1.969-2.312-1.969-2.079 0-4.016 1.61-4.016 3.438M426.715 121.581c0 1.172.953 1.969 2.297 1.969 2.078 0 4.031-1.61 4.031-3.438 0-1.172-.969-1.969-2.313-1.969-2.078 0-4.015 1.61-4.015 3.438M426.715 81.58c0 1.173.953 1.97 2.297 1.97 2.078 0 4.031-1.61 4.031-3.438 0-1.172-.969-1.969-2.313-1.969-2.078 0-4.015 1.61-4.015 3.438m.703.86c0-.97 3.234-3.548 4.484-3.548.281 0 .438.125.438.36 0 .969-3.25 3.547-4.485 3.547-.281 0-.437-.125-.437-.36M408.103 131.581c0 1.172.954 1.969 2.297 1.969 2.078 0 4.032-1.61 4.032-3.438 0-1.172-.969-1.969-2.313-1.969-2.078 0-4.016 1.61-4.016 3.438M408.103 84.08c0 1.173.954 1.97 2.297 1.97 2.078 0 4.032-1.61 4.032-3.438 0-1.172-.969-1.969-2.313-1.969-2.078 0-4.016 1.61-4.016 3.438M371.694 119.081c0 1.172.953 1.969 2.297 1.969 2.078 0 4.031-1.61 4.031-3.438 0-1.172-.969-1.969-2.313-1.969-2.078 0-4.015 1.61-4.015 3.438M353.082 111.581c0 1.172.954 1.969 2.297 1.969 2.078 0 4.032-1.61 4.032-3.438 0-1.172-.969-1.969-2.313-1.969-2.078 0-4.016 1.61-4.016 3.438M334.471 119.081c0 1.172.953 1.969 2.297 1.969 2.078 0 4.031-1.61 4.031-3.438 0-1.172-.968-1.969-2.312-1.969-2.078 0-4.016 1.61-4.016 3.438M315.86 129.081c0 1.172.953 1.969 2.297 1.969 2.078 0 4.031-1.61 4.031-3.438 0-1.172-.969-1.969-2.313-1.969-2.078 0-4.015 1.61-4.015 3.438M315.86 89.08c0 1.173.953 1.97 2.297 1.97 2.078 0 4.031-1.61 4.031-3.438 0-1.172-.969-1.969-2.313-1.969-2.078 0-4.015 1.61-4.015 3.438m.703.86c0-.97 3.234-3.548 4.484-3.548.282 0 .438.125.438.36 0 .969-3.25 3.547-4.485 3.547-.281 0-.437-.125-.437-.36M288.294 121.581c0 1.172.953 1.969 2.297 1.969 2.078 0 4.031-1.61 4.031-3.438 0-1.172-.969-1.969-2.313-1.969-2.078 0-4.015 1.61-4.015 3.438M270.028 114.081c0 1.172.953 1.969 2.296 1.969 2.079 0 4.032-1.61 4.032-3.438 0-1.172-.969-1.969-2.313-1.969-2.078 0-4.015 1.61-4.015 3.438M251.761 121.581c0 1.172.954 1.969 2.297 1.969 2.078 0 4.032-1.61 4.032-3.438 0-1.172-.969-1.969-2.313-1.969-2.078 0-4.016 1.61-4.016 3.438M233.495 131.581c0 1.172.953 1.969 2.297 1.969 2.078 0 4.031-1.61 4.031-3.438 0-1.172-.968-1.969-2.312-1.969-2.078 0-4.016 1.61-4.016 3.438M232.115 85.847c0 1.5 2.047 2.703 4.515 2.703 2.485 0 4.563-1.203 4.563-2.703 0-1.5-2.078-2.704-4.563-2.704-2.468 0-4.515 1.204-4.515 2.704m2.5-.594c0-.985.703-1.766 1.515-1.766 1.188 0 2.563 1.5 2.563 2.953 0 .985-.703 1.766-1.516 1.766-1.187 0-2.562-1.5-2.562-2.953M204.203 119.081c0 1.172.954 1.969 2.297 1.969 2.078 0 4.032-1.61 4.032-3.438 0-1.172-.969-1.969-2.313-1.969-2.078 0-4.016 1.61-4.016 3.438M204.203 84.08c0 1.173.954 1.97 2.297 1.97 2.078 0 4.032-1.61 4.032-3.438 0-1.172-.969-1.969-2.313-1.969-2.078 0-4.016 1.61-4.016 3.438M185.592 111.581c0 1.172.953 1.969 2.297 1.969 2.078 0 4.031-1.61 4.031-3.438 0-1.172-.968-1.969-2.312-1.969-2.078 0-4.016 1.61-4.016 3.438M166.981 119.081c0 1.172.953 1.969 2.297 1.969 2.078 0 4.031-1.61 4.031-3.438 0-1.172-.969-1.969-2.312-1.969-2.079 0-4.016 1.61-4.016 3.438M166.981 81.58c0 1.173.953 1.97 2.297 1.97 2.078 0 4.031-1.61 4.031-3.438 0-1.172-.969-1.969-2.312-1.969-2.079 0-4.016 1.61-4.016 3.438m.703.86c0-.97 3.234-3.548 4.484-3.548.282 0 .438.125.438.36 0 .969-3.25 3.547-4.484 3.547-.282 0-.438-.125-.438-.36M148.37 129.081c0 1.172.953 1.969 2.297 1.969 2.078 0 4.031-1.61 4.031-3.438 0-1.172-.969-1.969-2.313-1.969-2.078 0-4.015 1.61-4.015 3.438M148.37 84.08c0 1.173.953 1.97 2.297 1.97 2.078 0 4.031-1.61 4.031-3.438 0-1.172-.969-1.969-2.313-1.969-2.078 0-4.015 1.61-4.015 3.438M122.146 116.581c0 1.172.953 1.969 2.297 1.969 2.078 0 4.031-1.61 4.031-3.438 0-1.172-.969-1.969-2.312-1.969-2.079 0-4.016 1.61-4.016 3.438M122.146 81.58c0 1.173.953 1.97 2.297 1.97 2.078 0 4.031-1.61 4.031-3.438 0-1.172-.969-1.969-2.312-1.969-2.079 0-4.016 1.61-4.016 3.438M105.222 109.081c0 1.172.953 1.969 2.297 1.969 2.078 0 4.031-1.61 4.031-3.438 0-1.172-.968-1.969-2.312-1.969-2.078 0-4.016 1.61-4.016 3.438M105.222 79.08c0 1.173.953 1.97 2.297 1.97 2.078 0 4.031-1.61 4.031-3.438 0-1.172-.968-1.969-2.312-1.969-2.078 0-4.016 1.61-4.016 3.438M88.298 116.581c0 1.172.953 1.969 2.297 1.969 2.078 0 4.031-1.61 4.031-3.438 0-1.172-.968-1.969-2.312-1.969-2.078 0-4.016 1.61-4.016 3.438M71.375 126.581c0 1.172.953 1.969 2.296 1.969 2.079 0 4.032-1.61 4.032-3.438 0-1.172-.969-1.969-2.313-1.969-2.078 0-4.015 1.61-4.015 3.438M71.375 76.58c0 1.173.953 1.97 2.296 1.97 2.079 0 4.032-1.61 4.032-3.438 0-1.172-.969-1.969-2.313-1.969-2.078 0-4.015 1.61-4.015 3.438m.703.86c0-.97 3.234-3.548 4.484-3.548.281 0 .438.125.438.36 0 .969-3.25 3.547-4.485 3.547-.281 0-.437-.125-.437-.36"/><path class="Clef" d="M42.846 745.612c0 .156.141.297.297.297.063 0 .157-.016.157-.016 5.03-1.047 10.515-4.922 10.515-10.859 0-3.11-2.672-5.125-6.125-5.125-2.656 0-4.718 1.797-4.718 4a2 2 0 002.015 2.015 2 2 0 002.016-2.015c0-1.125-.89-2.016-2.016-2.016-.234 0-.453.031-.687.11.78-1.016 2.047-1.454 3.39-1.454 2.485 0 3.532 1.922 3.532 4.485 0 4.672-3.47 8.297-8.188 10.312-.125.063-.188.141-.188.266m11.766-13c0 .422.344.75.75.75a.754.754 0 00.766-.75.767.767 0 00-.766-.766.764.764 0 00-.75.766m0 4.75c0 .422.344.766.75.766a.767.767 0 00.766-.766.754.754 0 00-.766-.75.75.75 0 00-.75.75M42.846 690.44c0 3.734 3.141 6.969 6.876 6.969.562 0 1.109-.063 1.609-.203 0 0 .625 2.625.625 3.609 0 2.188-1.485 3.672-3.422 3.672-.469 0-1.172-.094-1.453-.344a2 2 0 001.844-2.015c0-1.125-.891-2.016-2.016-2.016a2.001 2.001 0 00-2.016 2.016c0 2.203 2.172 3.015 3.641 3.015 2.438 0 4.078-1.906 4.078-4.328 0-.906-.64-3.828-.64-3.828 2.03-.813 3.39-2.703 3.39-4.797 0-2.531-2-4.797-4.75-4.797-.219 0-.437 0-.672.031l-.734-3.484c1.969-1.875 3.625-3.953 3.625-6.953 0-1.922-.656-4.031-1.969-5.578-.297-.36-.547-.531-.734-.531-.235 0-.844.609-1.563 1.562-.718.969-1.375 2.641-1.375 4.406 0 1.36.86 4.922.86 4.922-2.485 2.203-5.203 5.141-5.203 8.672m1.874 1.063c0-1.563.844-4.063 3.907-7.016l.656 3.094c-1.781.562-2.875 2.218-2.875 3.843 0 1.719.938 2.891 2.266 3.469 0 0 .093.031.156.031.156 0 .297-.14.297-.296 0-.125-.078-.219-.188-.282-.75-.453-1.125-1.375-1.125-2.203 0-1.031.75-2.078 1.907-2.484l1.484 7.031a5.002 5.002 0 01-1.485.203c-2.578 0-5-2.25-5-5.39m3.36-13.485c0-1.797 1.125-4.25 2.75-4.25.812 0 .984.672.984 1.531 0 2.125-1.593 4.36-3.187 5.922 0 0-.547-2.312-.547-3.203m2.312 11.485c.141-.016.25-.016.391-.016 2.063 0 3.313 1.5 3.313 3.297 0 1.547-.985 3.047-2.25 3.64l-1.454-6.921M42.846 622.784c0 .156.141.297.297.297.063 0 .157-.016.157-.016 5.03-1.047 10.515-4.922 10.515-10.859 0-3.11-2.672-5.125-6.125-5.125-2.656 0-4.718 1.797-4.718 4a2 2 0 002.015 2.015 2 2 0 002.016-2.015c0-1.125-.89-2.016-2.016-2.016-.234 0-.453.031-.687.11.78-1.016 2.047-1.454 3.39-1.454 2.485 0 3.532 1.922 3.532 4.485 0 4.672-3.47 8.297-8.188 10.312-.125.063-.188.141-.188.266m11.766-13c0 .422.344.75.75.75a.754.754 0 00.766-.75.767.767 0 00-.766-.766.764.764 0 00-.75.766m0 4.75c0 .422.344.766.75.766a.767.767 0 00.766-.766.754.754 0 00-.766-.75.75.75 0 00-.75.75M42.846 567.612c0 3.734 3.141 6.969 6.876 6.969.562 0 1.109-.063 1.609-.203 0 0 .625 2.625.625 3.609 0 2.187-1.485 3.672-3.422 3.672-.469 0-1.172-.094-1.453-.344 1.047-.078 1.844-.953 1.844-2.016a2 2 0 00-2.016-2.015 2 2 0 00-2.016 2.015c0 2.204 2.172 3.016 3.641 3.016 2.438 0 4.078-1.906 4.078-4.328 0-.906-.64-3.828-.64-3.828 2.03-.813 3.39-2.703 3.39-4.797 0-2.531-2-4.797-4.75-4.797-.219 0-.437 0-.672.031l-.734-3.484c1.969-1.875 3.625-3.953 3.625-6.953 0-1.922-.656-4.031-1.969-5.578-.297-.36-.547-.532-.734-.532-.235 0-.844.61-1.563 1.563-.718.969-1.375 2.641-1.375 4.406 0 1.36.86 4.922.86 4.922-2.485 2.203-5.203 5.141-5.203 8.672m1.874 1.062c0-1.562.844-4.062 3.907-7.015l.656 3.094c-1.781.562-2.875 2.218-2.875 3.843 0 1.719.938 2.891 2.266 3.469 0 0 .093.031.156.031.156 0 .297-.14.297-.297 0-.125-.078-.218-.188-.281-.75-.453-1.125-1.375-1.125-2.203 0-1.031.75-2.078 1.907-2.484l1.484 7.031a5.002 5.002 0 01-1.485.203c-2.578 0-5-2.25-5-5.391m3.36-13.484c0-1.797 1.125-4.25 2.75-4.25.812 0 .984.672.984 1.531 0 2.125-1.593 4.36-3.187 5.922 0 0-.547-2.312-.547-3.203m2.312 11.484c.141-.015.25-.015.391-.015 2.063 0 3.313 1.5 3.313 3.297 0 1.547-.985 3.047-2.25 3.64l-1.454-6.922M42.846 499.956c0 .156.141.297.297.297.063 0 .157-.016.157-.016 5.03-1.047 10.515-4.922 10.515-10.859 0-3.11-2.672-5.125-6.125-5.125-2.656 0-4.718 1.797-4.718 4a2 2 0 002.015 2.015 2 2 0 002.016-2.015c0-1.125-.89-2.016-2.016-2.016a2.11 2.11 0 00-.687.109c.78-1.015 2.047-1.453 3.39-1.453 2.485 0 3.532 1.922 3.532 4.485 0 4.672-3.47 8.297-8.188 10.312-.125.063-.188.141-.188.266m11.766-13c0 .422.344.75.75.75a.754.754 0 00.766-.75.767.767 0 00-.766-.766.764.764 0 00-.75.766m0 4.75c0 .422.344.765.75.765a.766.766 0 00.766-.765.754.754 0 00-.766-.75.75.75 0 00-.75.75M42.846 444.784c0 3.734 3.141 6.969 6.876 6.969.562 0 1.109-.063 1.609-.203 0 0 .625 2.625.625 3.609 0 2.187-1.485 3.672-3.422 3.672-.469 0-1.172-.094-1.453-.344 1.047-.078 1.844-.953 1.844-2.016a2 2 0 00-2.016-2.015 2 2 0 00-2.016 2.015c0 2.204 2.172 3.016 3.641 3.016 2.438 0 4.078-1.906 4.078-4.328 0-.906-.64-3.828-.64-3.828 2.03-.813 3.39-2.703 3.39-4.797 0-2.531-2-4.797-4.75-4.797-.219 0-.437 0-.672.031l-.734-3.484c1.969-1.875 3.625-3.953 3.625-6.953 0-1.922-.656-4.031-1.969-5.578-.297-.36-.547-.532-.734-.532-.235 0-.844.61-1.563 1.563-.718.969-1.375 2.641-1.375 4.406 0 1.36.86 4.922.86 4.922-2.485 2.203-5.203 5.141-5.203 8.672m1.874 1.062c0-1.562.844-4.062 3.907-7.015l.656 3.094c-1.781.562-2.875 2.218-2.875 3.843 0 1.719.938 2.891 2.266 3.469 0 0 .093.031.156.031.156 0 .297-.14.297-.297 0-.125-.078-.218-.188-.281-.75-.453-1.125-1.375-1.125-2.203 0-1.031.75-2.078 1.907-2.484l1.484 7.031a5.002 5.002 0 01-1.485.203c-2.578 0-5-2.25-5-5.391m3.36-13.484c0-1.797 1.125-4.25 2.75-4.25.812 0 .984.672.984 1.531 0 2.125-1.593 4.36-3.187 5.922 0 0-.547-2.312-.547-3.203m2.312 11.484c.141-.015.25-.015.391-.015 2.063 0 3.313 1.5 3.313 3.297 0 1.547-.985 3.047-2.25 3.64l-1.454-6.922M42.846 377.128c0 .156.141.297.297.297.063 0 .157-.016.157-.016 5.03-1.047 10.515-4.922 10.515-10.859 0-3.11-2.672-5.125-6.125-5.125-2.656 0-4.718 1.796-4.718 4a2 2 0 002.015 2.015 2 2 0 002.016-2.015c0-1.125-.89-2.016-2.016-2.016a2.11 2.11 0 00-.687.109c.78-1.015 2.047-1.453 3.39-1.453 2.485 0 3.532 1.922 3.532 4.485 0 4.671-3.47 8.296-8.188 10.312-.125.063-.188.141-.188.266m11.766-13c0 .422.344.75.75.75a.754.754 0 00.766-.75.767.767 0 00-.766-.766.764.764 0 00-.75.766m0 4.75c0 .422.344.765.75.765a.766.766 0 00.766-.765.754.754 0 00-.766-.75.75.75 0 00-.75.75M42.846 321.956c0 3.734 3.141 6.969 6.876 6.969.562 0 1.109-.063 1.609-.204 0 0 .625 2.625.625 3.61 0 2.187-1.485 3.672-3.422 3.672-.469 0-1.172-.094-1.453-.344 1.047-.078 1.844-.953 1.844-2.016a2 2 0 00-2.016-2.015 2 2 0 00-2.016 2.015c0 2.203 2.172 3.016 3.641 3.016 2.438 0 4.078-1.906 4.078-4.328 0-.906-.64-3.828-.64-3.828 2.03-.813 3.39-2.703 3.39-4.797 0-2.531-2-4.797-4.75-4.797-.219 0-.437 0-.672.031l-.734-3.484c1.969-1.875 3.625-3.953 3.625-6.953 0-1.922-.656-4.032-1.969-5.578-.297-.36-.547-.532-.734-.532-.235 0-.844.61-1.563 1.563-.718.969-1.375 2.64-1.375 4.406 0 1.359.86 4.922.86 4.922-2.485 2.203-5.203 5.141-5.203 8.672m1.874 1.062c0-1.562.844-4.062 3.907-7.015l.656 3.093c-1.781.563-2.875 2.219-2.875 3.844 0 1.719.938 2.891 2.266 3.469 0 0 .093.031.156.031.156 0 .297-.14.297-.297 0-.125-.078-.218-.188-.281-.75-.453-1.125-1.375-1.125-2.203 0-1.031.75-2.078 1.907-2.484l1.484 7.031c-.453.14-.953.203-1.485.203-2.578 0-5-2.25-5-5.391m3.36-13.484c0-1.797 1.125-4.25 2.75-4.25.812 0 .984.672.984 1.531 0 2.125-1.593 4.36-3.187 5.922 0 0-.547-2.312-.547-3.203m2.312 11.484c.141-.015.25-.015.391-.015 2.063 0 3.313 1.5 3.313 3.297 0 1.546-.985 3.046-2.25 3.64l-1.454-6.922M42.846 254.3c0 .156.141.296.297.296.063 0 .157-.015.157-.015 5.03-1.047 10.515-4.922 10.515-10.86 0-3.109-2.672-5.125-6.125-5.125-2.656 0-4.718 1.797-4.718 4 0 1.125.89 2.016 2.015 2.016a2.001 2.001 0 002.016-2.016 2 2 0 00-2.016-2.015 2.11 2.11 0 00-.687.109c.78-1.015 2.047-1.453 3.39-1.453 2.485 0 3.532 1.922 3.532 4.484 0 4.672-3.47 8.297-8.188 10.313-.125.062-.188.141-.188.266m11.766-13c0 .421.344.75.75.75a.754.754 0 00.766-.75.767.767 0 00-.766-.766.764.764 0 00-.75.766m0 4.75c0 .421.344.765.75.765a.767.767 0 00.766-.765.754.754 0 00-.766-.75.75.75 0 00-.75.75M42.846 199.128c0 3.734 3.141 6.968 6.876 6.968.562 0 1.109-.062 1.609-.203 0 0 .625 2.625.625 3.61 0 2.187-1.485 3.672-3.422 3.672-.469 0-1.172-.094-1.453-.344 1.047-.078 1.844-.953 1.844-2.016a2 2 0 00-2.016-2.015 2 2 0 00-2.016 2.015c0 2.203 2.172 3.016 3.641 3.016 2.438 0 4.078-1.906 4.078-4.328 0-.907-.64-3.828-.64-3.828 2.03-.813 3.39-2.704 3.39-4.797 0-2.532-2-4.797-4.75-4.797-.219 0-.437 0-.672.031l-.734-3.484c1.969-1.875 3.625-3.953 3.625-6.953 0-1.922-.656-4.032-1.969-5.579-.297-.359-.547-.531-.734-.531-.235 0-.844.61-1.563 1.563-.718.968-1.375 2.64-1.375 4.406 0 1.359.86 4.922.86 4.922-2.485 2.203-5.203 5.14-5.203 8.672m1.874 1.062c0-1.562.844-4.062 3.907-7.015l.656 3.093c-1.781.563-2.875 2.219-2.875 3.844 0 1.719.938 2.891 2.266 3.469 0 0 .093.031.156.031a.308.308 0 00.297-.297c0-.125-.078-.219-.188-.281-.75-.453-1.125-1.375-1.125-2.203 0-1.031.75-2.078 1.907-2.485l1.484 7.032c-.453.14-.953.203-1.485.203-2.578 0-5-2.25-5-5.391m3.36-13.484c0-1.797 1.125-4.25 2.75-4.25.812 0 .984.672.984 1.531 0 2.125-1.593 4.359-3.187 5.922 0 0-.547-2.313-.547-3.203m2.312 11.484c.141-.015.25-.015.391-.015 2.063 0 3.313 1.5 3.313 3.296 0 1.547-.985 3.047-2.25 3.641l-1.454-6.922M42.846 131.472c0 .156.141.296.297.296.063 0 .157-.015.157-.015 5.03-1.047 10.515-4.922 10.515-10.86 0-3.109-2.672-5.125-6.125-5.125-2.656 0-4.718 1.797-4.718 4 0 1.125.89 2.016 2.015 2.016a2.001 2.001 0 002.016-2.016 2 2 0 00-2.016-2.015 2.11 2.11 0 00-.687.109c.78-1.015 2.047-1.453 3.39-1.453 2.485 0 3.532 1.922 3.532 4.484 0 4.672-3.47 8.297-8.188 10.313-.125.062-.188.141-.188.266m11.766-13c0 .421.344.75.75.75a.754.754 0 00.766-.75.767.767 0 00-.766-.766.764.764 0 00-.75.766m0 4.75c0 .421.344.765.75.765a.767.767 0 00.766-.765.754.754 0 00-.766-.75.75.75 0 00-.75.75M42.846 76.3c0 3.734 3.141 6.968 6.876 6.968.562 0 1.109-.062 1.609-.203 0 0 .625 2.625.625 3.61 0 2.187-1.485 3.672-3.422 3.672-.469 0-1.172-.094-1.453-.344a2 2 0 001.844-2.016 2 2 0 00-2.016-2.015 2 2 0 00-2.016 2.015c0 2.203 2.172 3.016 3.641 3.016 2.438 0 4.078-1.906 4.078-4.328 0-.907-.64-3.828-.64-3.828 2.03-.813 3.39-2.704 3.39-4.797 0-2.532-2-4.797-4.75-4.797-.219 0-.437 0-.672.031l-.734-3.484c1.969-1.875 3.625-3.953 3.625-6.953 0-1.922-.656-4.032-1.969-5.579-.297-.359-.547-.53-.734-.53-.235 0-.844.608-1.563 1.562-.718.968-1.375 2.64-1.375 4.406 0 1.36.86 4.922.86 4.922-2.485 2.203-5.203 5.14-5.203 8.672m1.874 1.062c0-1.562.844-4.062 3.907-7.015l.656 3.093c-1.781.563-2.875 2.219-2.875 3.844 0 1.719.938 2.89 2.266 3.469 0 0 .093.031.156.031.156 0 .297-.14.297-.297 0-.125-.078-.219-.188-.281-.75-.453-1.125-1.375-1.125-2.203 0-1.031.75-2.078 1.907-2.485l1.484 7.032c-.453.14-.953.203-1.485.203-2.578 0-5-2.25-5-5.39m3.36-13.485c0-1.797 1.125-4.25 2.75-4.25.812 0 .984.672.984 1.531 0 2.125-1.593 4.36-3.187 5.922 0 0-.547-2.313-.547-3.203m2.312 11.484c.141-.015.25-.015.391-.015 2.063 0 3.313 1.5 3.313 3.296 0 1.547-.985 3.047-2.25 3.641l-1.454-6.922"/><path class="KeySig" d="M58.63 748.049c0 .141.14.235.296.235.125 0 .406-.203.64-.375 1.548-1.156 3.063-2.422 3.063-4.156 0-.922-.61-1.641-1.656-1.641-.703 0-1.125.219-1.75.719v-6.766s0-.281-.297-.281-.297.281-.297.281v11.984m.594-4.218c.266-.391.64-.782 1.125-.782.516 0 .734.282.734.704 0 1.796-1.172 2.875-1.859 3.468v-3.39M58.63 690.549c0 .141.14.235.296.235.125 0 .406-.203.64-.375 1.548-1.156 3.063-2.422 3.063-4.156 0-.922-.61-1.641-1.656-1.641-.703 0-1.125.219-1.75.719v-6.766s0-.281-.297-.281-.297.281-.297.281v11.984m.594-4.218c.266-.391.64-.782 1.125-.782.516 0 .734.282.734.704 0 1.796-1.172 2.875-1.859 3.468v-3.39M58.63 625.221c0 .141.14.235.296.235.125 0 .406-.203.64-.375 1.548-1.156 3.063-2.422 3.063-4.156 0-.922-.61-1.641-1.656-1.641-.703 0-1.125.219-1.75.719v-6.766s0-.281-.297-.281-.297.281-.297.281v11.984m.594-4.218c.266-.391.64-.782 1.125-.782.516 0 .734.282.734.704 0 1.796-1.172 2.875-1.859 3.468v-3.39M58.63 567.721c0 .141.14.235.296.235.125 0 .406-.203.64-.375 1.548-1.157 3.063-2.422 3.063-4.157 0-.921-.61-1.64-1.656-1.64-.703 0-1.125.219-1.75.719v-6.766s0-.281-.297-.281-.297.281-.297.281v11.984m.594-4.218c.266-.391.64-.782 1.125-.782.516 0 .734.282.734.703 0 1.797-1.172 2.875-1.859 3.469v-3.39M58.63 502.393c0 .141.14.235.296.235.125 0 .406-.203.64-.375 1.548-1.157 3.063-2.422 3.063-4.157 0-.921-.61-1.64-1.656-1.64-.703 0-1.125.219-1.75.719v-6.766s0-.281-.297-.281-.297.281-.297.281v11.984m.594-4.218c.266-.391.64-.782 1.125-.782.516 0 .734.282.734.703 0 1.797-1.172 2.875-1.859 3.469v-3.39M58.63 444.893c0 .141.14.235.296.235.125 0 .406-.203.64-.375 1.548-1.157 3.063-2.422 3.063-4.157 0-.921-.61-1.64-1.656-1.64-.703 0-1.125.219-1.75.719v-6.766s0-.281-.297-.281-.297.281-.297.281v11.984m.594-4.218c.266-.391.64-.782 1.125-.782.516 0 .734.282.734.703 0 1.797-1.172 2.875-1.859 3.469v-3.39M58.63 379.565c0 .141.14.235.296.235.125 0 .406-.204.64-.375 1.548-1.157 3.063-2.422 3.063-4.157 0-.922-.61-1.64-1.656-1.64-.703 0-1.125.218-1.75.718v-6.765s0-.281-.297-.281-.297.281-.297.281v11.984m.594-4.219c.266-.39.64-.781 1.125-.781.516 0 .734.281.734.703 0 1.797-1.172 2.875-1.859 3.469v-3.391M58.63 322.065c0 .141.14.235.296.235.125 0 .406-.204.64-.375 1.548-1.157 3.063-2.422 3.063-4.157 0-.922-.61-1.64-1.656-1.64-.703 0-1.125.218-1.75.718v-6.765s0-.281-.297-.281-.297.281-.297.281v11.984m.594-4.219c.266-.39.64-.781 1.125-.781.516 0 .734.281.734.703 0 1.797-1.172 2.875-1.859 3.469v-3.391M58.63 256.737c0 .141.14.234.296.234.125 0 .406-.203.64-.375 1.548-1.156 3.063-2.421 3.063-4.156 0-.922-.61-1.64-1.656-1.64-.703 0-1.125.218-1.75.718v-6.765s0-.282-.297-.282-.297.282-.297.282v11.984m.594-4.219c.266-.39.64-.781 1.125-.781.516 0 .734.281.734.703 0 1.797-1.172 2.875-1.859 3.469v-3.391M58.63 199.237c0 .141.14.234.296.234.125 0 .406-.203.64-.375 1.548-1.156 3.063-2.421 3.063-4.156 0-.922-.61-1.64-1.656-1.64-.703 0-1.125.218-1.75.718v-6.765s0-.282-.297-.282-.297.282-.297.282v11.984m.594-4.219c.266-.39.64-.781 1.125-.781.516 0 .734.281.734.703 0 1.797-1.172 2.875-1.859 3.469v-3.391M58.63 133.909c0 .141.14.234.296.234.125 0 .406-.203.64-.375 1.548-1.156 3.063-2.421 3.063-4.156 0-.922-.61-1.64-1.656-1.64-.703 0-1.125.218-1.75.718v-6.765s0-.282-.297-.282-.297.282-.297.282v11.984m.594-4.219c.266-.39.64-.781 1.125-.781.516 0 .734.281.734.703 0 1.797-1.172 2.875-1.859 3.469v-3.391M58.63 76.409c0 .14.14.234.296.234.125 0 .406-.203.64-.375 1.548-1.156 3.063-2.421 3.063-4.156 0-.922-.61-1.64-1.656-1.64-.703 0-1.125.218-1.75.718v-6.765s0-.282-.297-.282-.297.282-.297.282v11.984m.594-4.219c.266-.39.64-.781 1.125-.781.516 0 .734.281.734.703 0 1.797-1.172 2.875-1.859 3.469v-3.39"/><path class="Rest" d="M539.094 743.753c0 1.281.86 2.468 2.235 3.39.125.078.187.11.281.11.109 0 .203-.079.203-.188 0-.094-.031-.156-.156-.281-.578-.578-.86-1.25-.86-1.922 0-.656.282-1.281.891-1.688.281-.187.562-.281.922-.281.125 0 .281.016.344.031.062.016.218.063.328.063.156 0 .25-.125.25-.266 0-.093-.016-.172-.485-.578-.453-.39-.859-1.531-.859-2.703 0-.531.312-1.297.641-1.953.343-.656.593-1.328.593-1.703 0-.891-3.281-3.094-3.531-3.094-.156 0-.234.094-.234.203 0 .078.031.156.125.235.625.64.937 1.531.937 2.531 0 1.172-.312 2.5-1.219 3.515-.14.125-.14.172-.14.25 0 .219 2.89 2.704 2.89 2.704s-.671-.125-.953-.125c-1.156 0-2.203.578-2.203 1.75M495.575 743.753c0 1.281.86 2.468 2.235 3.39.125.078.187.11.281.11.109 0 .203-.079.203-.188 0-.094-.031-.156-.156-.281-.578-.578-.86-1.25-.86-1.922 0-.656.282-1.281.891-1.688.281-.187.562-.281.922-.281.125 0 .281.016.344.031.062.016.218.063.328.063.156 0 .25-.125.25-.266 0-.093-.016-.172-.485-.578-.453-.39-.859-1.531-.859-2.703 0-.531.312-1.297.641-1.953.343-.656.593-1.328.593-1.703 0-.891-3.281-3.094-3.531-3.094-.156 0-.234.094-.234.203 0 .078.031.156.125.235.625.64.937 1.531.937 2.531 0 1.172-.312 2.5-1.219 3.515-.14.125-.14.172-.14.25 0 .219 2.89 2.704 2.89 2.704s-.671-.125-.953-.125c-1.156 0-2.203.578-2.203 1.75M450.729 685.003c0 1.031.953 1.703 2.078 1.703.703 0 1.328-.313 1.937-.719l-1.64 5.562c-.016.063-.016.125-.016.125 0 .172.141.297.281.297.141 0 .266-.062.313-.218l2.14-7.266c.032-.063.032-.125.032-.125a.294.294 0 00-.282-.297.332.332 0 00-.328.219c-.359.875-1 1.484-1.859 1.719.25-.25.39-.61.39-1a1.52 1.52 0 00-1.531-1.516c-.828 0-1.515.672-1.515 1.516M436.942 743.753c0 1.281.859 2.468 2.234 3.39.125.078.187.11.281.11.11 0 .203-.079.203-.188 0-.094-.031-.156-.156-.281-.578-.578-.859-1.25-.859-1.922 0-.656.281-1.281.89-1.688.282-.187.563-.281.922-.281.125 0 .281.016.344.031.062.016.219.063.328.063.156 0 .25-.125.25-.266 0-.093-.016-.172-.484-.578-.453-.39-.86-1.531-.86-2.703 0-.531.313-1.297.641-1.953.344-.656.594-1.328.594-1.703 0-.891-3.282-3.094-3.532-3.094-.156 0-.234.094-.234.203 0 .078.031.156.125.235.625.64.938 1.531.938 2.531 0 1.172-.313 2.5-1.219 3.515-.141.125-.141.172-.141.25 0 .219 2.891 2.704 2.891 2.704s-.672-.125-.953-.125c-1.157 0-2.203.578-2.203 1.75M409.367 743.753c0 1.281.86 2.468 2.235 3.39.125.078.187.11.281.11.109 0 .203-.079.203-.188 0-.094-.031-.156-.156-.281-.578-.578-.859-1.25-.859-1.922 0-.656.281-1.281.89-1.688.281-.187.563-.281.922-.281.125 0 .281.016.344.031.062.016.219.063.328.063.156 0 .25-.125.25-.266 0-.093-.016-.172-.484-.578-.454-.39-.86-1.531-.86-2.703 0-.531.313-1.297.641-1.953.344-.656.594-1.328.594-1.703 0-.891-3.282-3.094-3.532-3.094-.156 0-.234.094-.234.203 0 .078.031.156.125.235.625.64.937 1.531.937 2.531 0 1.172-.312 2.5-1.218 3.515-.141.125-.141.172-.141.25 0 .219 2.891 2.704 2.891 2.704s-.672-.125-.953-.125c-1.157 0-2.204.578-2.204 1.75M409.367 685.003c0 1.031.954 1.703 2.079 1.703.703 0 1.328-.313 1.937-.719l-1.641 5.562c-.015.063-.015.125-.015.125 0 .172.14.297.281.297.141 0 .266-.062.313-.218l2.14-7.266c.031-.063.031-.125.031-.125a.293.293 0 00-.281-.297.332.332 0 00-.328.219c-.359.875-1 1.484-1.859 1.719.25-.25.39-.61.39-1a1.52 1.52 0 00-1.531-1.516c-.828 0-1.516.672-1.516 1.516M387.308 743.753c0 1.281.859 2.468 2.234 3.39.125.078.188.11.282.11.109 0 .203-.079.203-.188 0-.094-.031-.156-.156-.281-.579-.578-.86-1.25-.86-1.922 0-.656.281-1.281.891-1.688.281-.187.562-.281.922-.281.125 0 .281.016.343.031.063.016.219.063.329.063.156 0 .25-.125.25-.266 0-.093-.016-.172-.485-.578-.453-.39-.859-1.531-.859-2.703 0-.531.312-1.297.64-1.953.344-.656.594-1.328.594-1.703 0-.891-3.281-3.094-3.531-3.094-.156 0-.234.094-.234.203 0 .078.031.156.125.235.625.64.937 1.531.937 2.531 0 1.172-.312 2.5-1.219 3.515-.14.125-.14.172-.14.25 0 .219 2.89 2.704 2.89 2.704s-.672-.125-.953-.125c-1.156 0-2.203.578-2.203 1.75M365.249 743.753c0 1.281.859 2.468 2.234 3.39.125.078.188.11.281.11.11 0 .204-.079.204-.188 0-.094-.032-.156-.157-.281-.578-.578-.859-1.25-.859-1.922 0-.656.281-1.281.891-1.688a1.57 1.57 0 01.921-.281 1.9 1.9 0 01.344.031c.063.016.219.063.328.063.157 0 .25-.125.25-.266 0-.093-.015-.172-.484-.578-.453-.39-.859-1.531-.859-2.703 0-.531.312-1.297.64-1.953.344-.656.594-1.328.594-1.703 0-.891-3.281-3.094-3.531-3.094-.157 0-.235.094-.235.203 0 .078.032.156.125.235.625.64.938 1.531.938 2.531 0 1.172-.313 2.5-1.219 3.515-.141.125-.141.172-.141.25 0 .219 2.891 2.704 2.891 2.704s-.672-.125-.953-.125c-1.156 0-2.203.578-2.203 1.75M365.249 687.284c0 .125.078.203.203.203h6.203c.109 0 .188-.078.188-.203v-2.094c0-.125-.079-.203-.188-.203h-6.203c-.125 0-.203.078-.203.203v2.094M333.766 743.753c0 1.281.86 2.468 2.235 3.39.125.078.187.11.281.11.109 0 .203-.079.203-.188 0-.094-.031-.156-.156-.281-.578-.578-.859-1.25-.859-1.922 0-.656.281-1.281.89-1.688.281-.187.563-.281.922-.281.125 0 .281.016.344.031.062.016.219.063.328.063.156 0 .25-.125.25-.266 0-.093-.016-.172-.484-.578-.454-.39-.86-1.531-.86-2.703 0-.531.313-1.297.641-1.953.344-.656.594-1.328.594-1.703 0-.891-3.282-3.094-3.532-3.094-.156 0-.234.094-.234.203 0 .078.031.156.125.235.625.64.937 1.531.937 2.531 0 1.172-.312 2.5-1.218 3.515-.141.125-.141.172-.141.25 0 .219 2.891 2.704 2.891 2.704s-.672-.125-.953-.125c-1.157 0-2.204.578-2.204 1.75M294.002 743.753c0 1.281.859 2.468 2.234 3.39.125.078.188.11.281.11.11 0 .203-.079.203-.188 0-.094-.031-.156-.156-.281-.578-.578-.859-1.25-.859-1.922 0-.656.281-1.281.89-1.688.282-.187.563-.281.922-.281a1.9 1.9 0 01.344.031c.063.016.219.063.328.063.156 0 .25-.125.25-.266 0-.093-.015-.172-.484-.578-.453-.39-.86-1.531-.86-2.703 0-.531.313-1.297.641-1.953.344-.656.594-1.328.594-1.703 0-.891-3.281-3.094-3.531-3.094-.157 0-.235.094-.235.203 0 .078.031.156.125.235.625.64.938 1.531.938 2.531 0 1.172-.313 2.5-1.219 3.515-.141.125-.141.172-.141.25 0 .219 2.891 2.704 2.891 2.704s-.672-.125-.953-.125c-1.156 0-2.203.578-2.203 1.75M120.346 252.44c0 1.281.86 2.469 2.235 3.391.125.078.187.109.281.109.109 0 .203-.078.203-.187 0-.094-.031-.157-.156-.282-.578-.578-.859-1.25-.859-1.921 0-.657.281-1.282.89-1.688.281-.187.563-.281.922-.281.125 0 .281.015.344.031.062.016.219.063.328.063.156 0 .25-.125.25-.266 0-.094-.016-.172-.484-.578-.454-.391-.86-1.531-.86-2.703 0-.532.313-1.297.641-1.953.344-.657.594-1.329.594-1.704 0-.89-3.282-3.093-3.532-3.093-.156 0-.234.093-.234.203 0 .078.031.156.125.234.625.641.937 1.531.937 2.531 0 1.172-.312 2.5-1.218 3.516-.141.125-.141.172-.141.25 0 .219 2.891 2.703 2.891 2.703s-.672-.125-.953-.125c-1.157 0-2.204.578-2.204 1.75M353.082 73.143c0 .125.079.204.204.204h6.203c.109 0 .187-.079.187-.204V71.05c0-.125-.078-.203-.187-.203h-6.203c-.125 0-.204.078-.204.203v2.093"/><path class="Dynamic" d="M363.861 720.69c0 .156.125.25.578.25h2.734c.469 0 .594-.094.594-.25s-.125-.25-.594-.25c-.344 0-.437-.125-.437-.187 0-.047.015-.11.015-.11s.953-3.14.953-3.172c.219.578.657.907 1.375.907 1.594 0 2.797-1.704 2.797-3.688 0-1.078-.703-1.844-1.531-1.844-1.063 0-1.688.828-1.688.828s-.156-.906-1.281-.906c-1.109 0-1.656.969-1.89 1.438-.219.484-.25.578-.25.672 0 .093.062.156.156.156s.156-.047.344-.469c.203-.422.671-1.125 1.093-1.125.157 0 .203.078.203.203s-.093.453-.093.453l-1.953 6.485s-.125.359-.547.359c-.453 0-.578.094-.578.25m4.031-4.375l.734-2.422c.485-.64.891-.656 1.172-.656.391 0 .625.391.625.828 0 1.172-.516 2.906-1.891 2.906a.628.628 0 01-.64-.656M142.956 220.753c0 .093.062.156.156.156s.156.016.297-.391c.125-.406.593-1.203 1.172-1.203.171 0 .296.219.296.375 0 .516-1.125 4.031-1.125 4.031 0 .094.391.157.75.157.344 0 .625-.047.625-.11l1.094-3.531s.25-.922.656-.922c.172 0 .313.219.313.375 0 .516-1.141 4.031-1.141 4.031 0 .094.407.157.75.157.344 0 .625-.047.625-.11l1.094-3.531s.266-.922.672-.922c.156 0 .297.219.297.375 0 .297-.438 1.547-.438 1.547s-.468 1.422-.468 1.781c0 .703.515 1.219 1.093 1.219 1.032 0 2.11-1.328 2.11-2.187 0-.094-.047-.157-.141-.157-.094 0-.172.047-.328.485-.156.453-.719 1.125-1.188 1.125-.156 0-.203-.141-.203-.297 0-.36.485-1.781.485-1.781s.437-1.25.437-1.532c0-.703-.484-1.265-1.219-1.265-.593 0-1.156.812-1.156.812s-.25-.812-1.14-.812c-.61 0-1.157.812-1.157.812s-.265-.812-1.156-.812c-.875 0-1.594.968-1.812 1.406-.204.437-.25.625-.25.719m5.593 4.562c0 .813.641 1.344 1.375 1.344 3.297 0 4.485-4.672 5-7.297h1.328s.375-.016.375-.375-.375-.359-.375-.359h-1.14c.281-1.532 1.015-2.782 1.937-2.782a.94.94 0 00-.25.641c0 .547.422.969.969.969a.95.95 0 00.953-.969c0-.859-1.047-1.281-1.937-1.281-1.703 0-3.063 1.562-3.766 3.422h-1.328s-.375 0-.375.359.375.375.375.375h1.141c-.532 2.906-1.204 6.469-2.688 6.688a1.01 1.01 0 00.328-.735.95.95 0 00-.969-.953.947.947 0 00-.953.953"/><path class="Beam" fill-rule="evenodd" d="M544.763 676.177l14.25 1.31v2.5l-14.25-1.31v-2.5M428.823 677.546l14.437-1.309v2.5l-14.437 1.309v-2.5M77.043 681.164l11.72 1.323v2.5l-11.72-1.323v-2.5M77.043 684.914l11.72 1.323v2.5l-11.72-1.323v-2.5M213.67 552.094l13.163 1.315v2.5l-13.163-1.315v-2.5M272.998 332.753l43.2-6.346v2.5l-43.2 6.346v-2.5M221.048 317.846l44.086-6.343v2.5l-44.086 6.343v-2.5"/><path class="Hook" d="M182.06 432.11v4.485h.594c2.484.859 4.313 2.281 4.313 5.453 0 1.969-1.172 3.719-1.532 4.203-.359.484-.437.609-.437.75 0 .125.125.234.25.234.109 0 .25-.125.469-.375 1.359-1.609 2.031-3.531 2.031-5.281 0-2.328-1.485-4.14-2.703-5.64-1.219-1.5-1.907-2.516-2.391-3.829 0 0 0-.281-.297-.281s-.297.281-.297.281M371.489 309.282v4.485h.594c2.484.859 4.312 2.281 4.312 5.453 0 1.969-1.172 3.719-1.531 4.203-.36.484-.438.609-.438.75 0 .125.125.234.25.234.11 0 .25-.125.469-.375 1.359-1.609 2.031-3.531 2.031-5.281 0-2.328-1.484-4.141-2.703-5.641-1.219-1.5-1.906-2.515-2.39-3.828 0 0 0-.281-.297-.281s-.297.281-.297.281M315.548 371.221s0 .282.297.282.297-.282.297-.282c.484-1.312 1.5-2.343 2.828-3.64 1.313-1.297 2.86-2.953 2.86-5.828 0-1.75-.657-3.672-2.016-5.282-.219-.25-.359-.375-.484-.375a.241.241 0 00-.235.235c0 .14.078.265.438.75.359.484 1.515 2.234 1.515 4.203 0 3.031-1.781 5.453-4.906 5.453h-.594v4.484M258.815 383.721s0 .282.297.282.297-.282.297-.282c.484-1.312 1.5-2.343 2.828-3.64 1.312-1.297 2.859-2.953 2.859-5.828 0-1.75-.656-3.672-2.016-5.282-.218-.25-.359-.375-.484-.375a.24.24 0 00-.234.235c0 .14.078.265.437.75.36.484 1.516 2.234 1.516 4.203 0 3.031-1.781 5.453-4.906 5.453h-.594v4.484M518.929 186.454v4.485h.594c2.484.859 4.312 2.281 4.312 5.453 0 1.969-1.171 3.719-1.531 4.203-.359.484-.437.609-.437.75 0 .125.125.234.25.234.109 0 .25-.125.468-.375 1.36-1.609 2.032-3.531 2.032-5.281 0-2.328-1.485-4.141-2.703-5.641-1.219-1.5-1.907-2.515-2.391-3.828 0 0 0-.281-.297-.281s-.297.281-.297.281M182.96 186.454v4.485h.594c2.484.859 4.313 2.281 4.313 5.453 0 1.969-1.172 3.719-1.532 4.203-.359.484-.437.609-.437.75 0 .125.125.234.25.234.109 0 .25-.125.469-.375 1.359-1.609 2.031-3.531 2.031-5.281 0-2.328-1.485-4.141-2.703-5.641-1.219-1.5-1.907-2.515-2.391-3.828 0 0 0-.281-.297-.281s-.297.281-.297.281"/><path class="RehearsalMark" fill="none" stroke="#000" stroke-linecap="square" stroke-linejoin="bevel" d="M348.636 646.364c0-1.436 1.539-2.6 3.438-2.6h27.5c1.898 0 3.437 1.164 3.437 2.6v20.8c0 1.436-1.539 2.6-3.437 2.6h-27.5c-1.899 0-3.438-1.164-3.438-2.6v-20.8"/><path class="RehearsalMark" d="M355.355 655.499v2.625c0 .51.068.833.203.969.136.135.479.244 1.031.328v.343h-4.671v-.343c.208-.042.317-.063.328-.063.333-.041.557-.148.672-.32.114-.172.171-.477.171-.914v-6.203c0-.49-.073-.818-.218-.985-.146-.166-.464-.265-.953-.297v-.343h4.531c1.166 0 2.07.221 2.711.664.64.442.961 1.065.961 1.867 0 .542-.151 1.016-.453 1.422-.303.406-.735.719-1.297.937a3.717 3.717 0 01-1.024.242c-.37.037-1.034.06-1.992.071m0-.469c.917 0 1.534-.141 1.852-.422.317-.281.476-.849.476-1.703 0-.76-.125-1.307-.375-1.641-.25-.333-.667-.5-1.25-.5-.469 0-.703.162-.703.485v3.781m8.734-1.891c.917 0 1.675.326 2.274.977s.898 1.466.898 2.445c0 .969-.299 1.779-.898 2.43-.599.651-1.357.977-2.274.977-.916 0-1.674-.326-2.273-.977-.599-.651-.898-1.477-.898-2.477 0-.947.307-1.747.921-2.398.615-.651 1.365-.977 2.25-.977m.016.469c-.427 0-.719.222-.875.664-.156.443-.234 1.274-.234 2.492 0 1.021.08 1.732.242 2.133.161.401.448.602.859.602.412 0 .696-.211.852-.633.156-.422.234-1.164.234-2.227 0-1.135-.078-1.924-.234-2.367-.156-.442-.438-.664-.844-.664m7.625.453c-.26 0-.526.11-.797.328-.271.219-.406.381-.406.485v3.75c0 .26.049.45.148.57.099.12.279.195.539.227v.343h-3.39v-.343c.323-.063.528-.146.617-.25.089-.104.133-.297.133-.578v-4.125c0-.292-.047-.49-.141-.594-.094-.104-.297-.182-.609-.235v-.328h2.687v1.032c.511-.803 1.177-1.204 2-1.204.584 0 1.045.18 1.383.539.339.36.508.836.508 1.43v3.516c0 .302.047.508.141.617.093.109.276.169.546.18v.343h-3.296v-.343c.229-.021.395-.094.5-.219.104-.125.156-.318.156-.578v-3.391c0-.781-.24-1.172-.719-1.172m7.859-.75v.61h-1.328v4.187c0 .281.042.485.125.61.084.125.224.187.422.187.281 0 .547-.24.797-.719l.359.157c-.291.572-.593.981-.906 1.226-.312.245-.703.367-1.172.367-.489 0-.875-.13-1.156-.39-.281-.261-.422-.62-.422-1.078v-4.547h-.734v-.375c.458-.386.854-.766 1.187-1.141.334-.375.719-.865 1.157-1.469h.343v2.375h1.328"/><path class="RehearsalMark" fill="none" stroke="#000" stroke-linecap="square" stroke-linejoin="bevel" d="M470.745 405.231c0-2.43 2.357-4.4 5.264-4.4h42.113c2.907 0 5.264 1.97 5.264 4.4v13.2c0 2.43-2.357 4.4-5.264 4.4h-42.113c-2.907 0-5.264-1.97-5.264-4.4v-13.2"/><path class="RehearsalMark" d="M482.534 409.846c0 .292-.044.56-.132.805a2.013 2.013 0 01-.328.602 2.08 2.08 0 01-.516.429 4.01 4.01 0 01-.594.305c-.182.073-.403.156-.664.25l2.828 3.984a.67.67 0 00.563.266v.344h-2.86l-2.922-4.375h-.375v2.734c0 .5.071.823.211.969.141.146.482.255 1.024.328v.344h-4.735v-.344c.553-.073.896-.18 1.032-.32.135-.141.203-.466.203-.977v-6.187c0-.511-.078-.844-.235-1-.156-.157-.489-.256-1-.297v-.344h4.532c1.281 0 2.263.214 2.945.641.682.427 1.023 1.041 1.023 1.843m-4.25-2.015c-.5 0-.75.192-.75.578v3.594c1-.021 1.678-.167 2.032-.438.354-.271.531-.823.531-1.656 0-.74-.141-1.271-.422-1.594-.281-.323-.745-.484-1.391-.484m7.844 5.562c.011.25.029.477.055.68.026.203.075.432.148.687.073.256.167.467.282.633.114.167.273.31.476.43.203.12.44.18.711.18.292 0 .56-.071.805-.211.245-.141.508-.383.789-.727l.328.203c-.458.656-.885 1.115-1.281 1.375-.396.261-.875.391-1.438.391-.864 0-1.554-.313-2.07-.938-.516-.625-.774-1.442-.774-2.453 0-1.031.264-1.862.79-2.492.526-.63 1.221-.945 2.085-.945 1.594 0 2.469 1.062 2.625 3.187h-3.531m1.813-.719a24.652 24.652 0 00-.032-.679 4.44 4.44 0 00-.07-.539 1.215 1.215 0 00-.148-.438.836.836 0 00-.258-.242.74.74 0 00-.399-.102c-.343 0-.588.162-.734.485-.146.323-.229.896-.25 1.719h1.891v-.204m5.875-4c0-.114.052-.263.156-.445.104-.182.156-.299.156-.351 0-.177-.135-.266-.406-.266-.24 0-.414.083-.523.25-.11.167-.165.437-.165.812v1.704h1.219v.609h-1.219v4.406c0 .459.071.755.211.891.141.135.451.203.93.203v.344h-3.906v-.344c.323-.031.536-.104.64-.219.105-.114.157-.317.157-.609v-4.672h-.797v-.609h.797c0-.417.018-.771.054-1.063.037-.292.102-.583.196-.875.093-.292.232-.526.414-.703.182-.177.422-.318.719-.422.296-.104.658-.156 1.085-.156.584 0 1.06.13 1.43.39.37.261.555.599.555 1.016 0 .271-.078.487-.235.649-.156.161-.364.242-.625.242a.846.846 0 01-.601-.227.729.729 0 01-.242-.555m6.75 3.563a.841.841 0 01-.571-.211 2.974 2.974 0 01-.398-.414c-.104-.135-.193-.203-.266-.203-.239 0-.442.13-.609.39-.167.261-.25.573-.25.938v2.656c0 .438.062.724.187.86.125.135.407.213.844.234v.344h-3.734v-.344c.312-.052.515-.133.609-.242.094-.11.141-.305.141-.586v-4.125c0-.281-.05-.479-.149-.594-.099-.114-.299-.193-.601-.234v-.328h2.656v1.14c.323-.469.63-.804.922-1.008a1.66 1.66 0 01.969-.304c.323 0 .591.101.804.304.214.204.321.467.321.789a.96.96 0 01-.242.672.819.819 0 01-.633.266m2.984-1.047c0 .042.07.164.211.367.141.203.211.383.211.539 0 .24-.089.435-.266.586-.177.151-.406.227-.687.227-.292 0-.518-.083-.68-.25-.161-.167-.242-.391-.242-.672 0-.531.245-.961.734-1.289.49-.328 1.136-.492 1.938-.492.854 0 1.534.172 2.039.515.505.344.758.813.758 1.407v3.625c0 .229.099.343.297.343a.25.25 0 00.156-.047l.14-.14.204.297c-.49.552-1.016.828-1.579.828-.354 0-.617-.078-.789-.235-.171-.156-.299-.416-.382-.781-.719.677-1.459 1.016-2.219 1.016-.448 0-.82-.143-1.117-.43-.297-.286-.446-.648-.446-1.086 0-.291.078-.56.235-.804.156-.245.338-.446.547-.602.208-.156.492-.313.851-.469.36-.156.667-.276.922-.359.255-.083.586-.188.992-.313.104-.02.183-.041.235-.062v-1.016c0-.427-.092-.737-.274-.929-.182-.193-.476-.29-.883-.29-.25 0-.463.047-.64.141-.177.094-.266.219-.266.375m2.063 4.219v-2.016c-1.136.292-1.704.854-1.704 1.688 0 .271.066.492.196.664.13.172.299.258.508.258.323 0 .656-.198 1-.594m5.906-5.031v5.312c0 .261.049.451.148.57.099.12.274.196.524.227v.344h-3.375v-.344c.312-.073.513-.159.601-.258.089-.099.133-.289.133-.57v-4.125c0-.292-.047-.485-.141-.578-.093-.094-.291-.177-.593-.25v-.328h2.703m-1.813-2.907c.24-.208.511-.312.813-.312.302 0 .56.107.773.32.214.214.321.466.321.758 0 .312-.107.57-.321.773a1.087 1.087 0 01-.781.305c-.307 0-.578-.101-.812-.305a.977.977 0 01-.352-.773.98.98 0 01.359-.766m7.094 3.657c-.26 0-.526.109-.797.328-.271.218-.406.38-.406.484v3.75c0 .261.049.451.148.57.099.12.279.196.539.227v.344h-3.39v-.344c.323-.063.529-.146.617-.25.089-.104.133-.297.133-.578v-4.125c0-.292-.047-.49-.141-.594-.094-.104-.297-.182-.609-.234v-.328h2.687v1.031c.511-.802 1.177-1.203 2-1.203.584 0 1.045.179 1.383.539.339.359.508.836.508 1.429v3.516c0 .302.047.508.141.617.093.11.276.17.546.18v.344h-3.296v-.344c.229-.021.395-.094.5-.219.104-.125.156-.317.156-.578v-3.391c0-.781-.24-1.171-.719-1.171"/><path class="RehearsalMark" fill="none" stroke="#000" stroke-linecap="square" stroke-linejoin="bevel" d="M107.482 161.775c0-3.646 2.85-6.6 6.366-6.6h50.925c3.515 0 6.365 2.954 6.365 6.6v8.8c0 3.645-2.85 6.6-6.365 6.6h-50.925c-3.516 0-6.366-2.955-6.366-6.6v-8.8"/><path class="RehearsalMark" d="M116.279 170.784a3.17 3.17 0 001.672-.453c.5-.302 1.01-.729 1.531-1.281l.422.359-.172.203c-.125.135-.203.219-.234.25l-.25.25c-.136.135-.24.232-.313.289-.073.057-.19.143-.351.258-.162.115-.3.2-.414.258a7.66 7.66 0 01-.454.203 3.663 3.663 0 01-.539.18 5.487 5.487 0 01-1.242.14c-1.448 0-2.638-.461-3.57-1.383-.932-.922-1.399-2.101-1.399-3.539 0-1.427.467-2.619 1.399-3.578.932-.958 2.096-1.437 3.492-1.437.438 0 .849.057 1.234.172.386.114.709.226.969.335.261.11.464.165.61.165a.465.465 0 00.328-.133c.093-.089.187-.258.281-.508h.375v3.281h-.344a8.47 8.47 0 00-.297-.57 9.703 9.703 0 00-.476-.727 4.926 4.926 0 00-.657-.765 3.38 3.38 0 00-.828-.555 2.263 2.263 0 00-1.007-.242c-.844 0-1.485.38-1.922 1.14-.438.761-.657 1.865-.657 3.313 0 2.917.938 4.375 2.813 4.375m7.625-6.234c.917 0 1.674.325 2.273.976.599.651.899 1.466.899 2.445 0 .969-.3 1.779-.899 2.43-.599.651-1.356.977-2.273.977s-1.675-.326-2.274-.977c-.598-.651-.898-1.476-.898-2.476 0-.948.307-1.748.922-2.399s1.365-.976 2.25-.976m.016.468c-.428 0-.719.222-.875.664-.157.443-.235 1.274-.235 2.493 0 1.02.081 1.731.242 2.132.162.401.448.602.86.602.411 0 .695-.211.851-.633.157-.422.235-1.164.235-2.226 0-1.136-.078-1.925-.235-2.368-.156-.442-.437-.664-.843-.664m8.359 6.344v-.937c-.406.364-.755.614-1.047.75a2.281 2.281 0 01-.969.203c-.583 0-1.041-.175-1.375-.524-.333-.349-.5-.836-.5-1.461v-3.515c0-.292-.049-.487-.148-.586-.099-.099-.3-.18-.602-.242v-.329h2.703v4.735c0 .354.058.607.172.758.115.151.318.226.61.226.354 0 .734-.203 1.14-.609v-3.953c0-.302-.057-.508-.172-.618-.114-.109-.349-.179-.703-.21v-.329h2.828v5.032c0 .291.063.494.188.609.125.115.338.182.641.203v.313l-.907.109c-.781.083-1.401.208-1.859.375m5.922-6.641v.938c.219-.396.463-.68.734-.852.271-.172.615-.257 1.031-.257.771 0 1.396.302 1.875.906.48.604.719 1.39.719 2.359 0 1.042-.252 1.893-.758 2.555-.505.661-1.148.992-1.929.992-.302 0-.568-.06-.797-.18-.229-.119-.511-.341-.844-.664v1.969c0 .469.076.792.227.969.151.177.44.276.867.297v.297h-3.844v-.344c.344-.052.563-.128.656-.227.094-.099.141-.294.141-.586v-7.015c0-.292-.05-.49-.149-.594-.098-.104-.304-.182-.617-.234v-.329h2.688m1.234.594c-.302 0-.578.13-.828.391-.25.26-.375.458-.375.594v3.421c.229.573.589.86 1.078.86.781 0 1.172-.86 1.172-2.578 0-1.792-.349-2.688-1.047-2.688m6.422-3.609v8.297c0 .552.229.828.688.828v.344h-3.391v-.344c.5-.042.75-.318.75-.828v-7.157c0-.489-.25-.76-.75-.812v-.328h2.703m3.234 6.031c.011.25.029.477.055.68.026.203.076.432.149.687.072.255.166.466.281.633.114.167.273.31.476.43.203.12.44.179.711.179.292 0 .56-.07.805-.211.245-.14.508-.382.789-.726l.328.203c-.458.656-.885 1.115-1.281 1.375-.396.26-.875.391-1.438.391-.864 0-1.554-.313-2.07-.938-.516-.625-.773-1.443-.773-2.453 0-1.031.263-1.862.789-2.492.526-.63 1.221-.945 2.086-.945 1.593 0 2.468 1.062 2.625 3.187h-3.532m1.813-.719c-.01-.291-.021-.518-.031-.679a4.637 4.637 0 00-.071-.539 1.215 1.215 0 00-.148-.438.836.836 0 00-.258-.242.738.738 0 00-.398-.102c-.344 0-.589.162-.735.485-.146.323-.229.896-.25 1.718h1.891v-.203m6.344-2.297v.61h-1.328v4.187c0 .282.041.485.125.61.083.125.224.187.421.187.282 0 .547-.239.797-.719l.36.157c-.292.573-.594.981-.907 1.226-.312.245-.703.367-1.171.367-.49 0-.875-.13-1.157-.39-.281-.261-.422-.62-.422-1.078v-4.547h-.734v-.375c.458-.386.854-.766 1.188-1.141.333-.375.718-.864 1.156-1.469h.344v2.375h1.328m4.343-.328c.709-1.906 1.735-2.859 3.079-2.859.76 0 1.39.242 1.89.726.5.485.75 1.097.75 1.836 0 1.032-.531 2.053-1.594 3.063l-2.265 2.156h2.109c.719 0 1.182-.057 1.391-.172.208-.114.416-.422.625-.922h.328l-.625 2.954h-5.891v-.329c1.604-1.697 2.667-2.95 3.188-3.757.521-.808.781-1.534.781-2.18 0-.469-.154-.883-.461-1.242-.307-.36-.711-.539-1.211-.539-.719 0-1.286.422-1.703 1.265h-.391"/><path class="HairpinSegment" d="M279.713 716.19l.141.109c-.646.896-1.229 1.344-1.75 1.344a.48.48 0 01-.367-.14.502.502 0 01-.133-.36c0-.239.052-.599.156-1.078-.417.583-.779.987-1.086 1.211a1.793 1.793 0 01-1.086.336c-.385 0-.69-.117-.914-.352-.224-.234-.336-.56-.336-.976 0-.594.182-1.211.547-1.852a5.342 5.342 0 011.375-1.601c.552-.427 1.078-.641 1.578-.641.219 0 .386.055.5.164.115.11.193.284.234.524l.563-1.954c.115-.427.172-.697.172-.812 0-.208-.245-.313-.735-.313v-.234a13.116 13.116 0 001.75-.297l.063.063c-.542 2.114-.938 3.599-1.188 4.453-.458 1.771-.687 2.776-.687 3.015 0 .063.021.12.062.172a.194.194 0 00.157.078c.104 0 .213-.052.328-.156.114-.104.333-.338.656-.703m-1.281-3.047c0-.448-.198-.672-.594-.672-.364 0-.742.211-1.133.633-.39.422-.708.935-.953 1.539-.245.604-.367 1.151-.367 1.641 0 .229.062.419.187.57a.617.617 0 00.5.227c.365 0 .73-.203 1.094-.61.365-.406.638-.919.821-1.539.182-.62.33-1.216.445-1.789m3.25 3.906c.187 0 .526-.312 1.015-.937l.157.141c-.344.5-.643.851-.899 1.054a1.293 1.293 0 01-.82.305c-.365 0-.547-.224-.547-.672 0-.229.109-.661.328-1.297l.578-2.125c.032-.239.047-.416.047-.531 0-.125-.047-.203-.14-.234-.094-.032-.302-.053-.625-.063v-.187c.375-.032 1.026-.136 1.953-.313v.031l-1.125 4.125c-.073.292-.11.469-.11.532 0 .041.019.08.055.117a.183.183 0 00.133.054m.492-7.226c.109-.12.25-.18.422-.18s.32.065.445.196c.125.13.188.283.188.46 0 .167-.063.31-.188.43a.612.612 0 01-.437.18c-.188 0-.334-.057-.438-.172a.65.65 0 01-.156-.453c0-.188.055-.341.164-.461m7.977 7.023c0 .125.052.188.156.188.104 0 .216-.057.336-.172.12-.115.346-.375.679-.781l.172.156c-.312.427-.606.76-.882 1s-.576.359-.899.359c-.323 0-.484-.182-.484-.547 0-.104.052-.369.156-.796l.703-2.766c.052-.188.078-.323.078-.406a.25.25 0 00-.07-.172.216.216 0 00-.164-.078c-.177 0-.404.122-.68.367s-.56.57-.851.976a6.016 6.016 0 00-.727 1.274c-.172.422-.378 1.101-.617 2.039h-.891c.761-2.813 1.141-4.266 1.141-4.359 0-.198-.083-.297-.25-.297-.208 0-.477.153-.805.461-.328.307-.659.716-.992 1.226a5.181 5.181 0 00-.523 1.016c-.141.364-.357 1.015-.649 1.953h-.891c.094-.344.256-.917.485-1.719.469-1.656.703-2.568.703-2.734 0-.177-.156-.266-.469-.266h-.297v-.187a51.923 51.923 0 001.907-.391l.031.031-.688 2.5c1.073-1.687 1.964-2.531 2.672-2.531a.64.64 0 01.492.211.738.738 0 01.196.523c0 .24-.162.849-.485 1.829.625-.99 1.157-1.672 1.594-2.047.386-.344.745-.516 1.078-.516.198 0 .365.076.5.227a.798.798 0 01.203.554.966.966 0 01-.047.313l-.812 3.015a5.333 5.333 0 00-.109.547m2.531-.562c.167 0 .31.068.43.203a.709.709 0 01.179.484.617.617 0 01-.187.453.618.618 0 01-.453.188.535.535 0 01-.407-.188.65.65 0 01-.172-.453c0-.187.06-.349.18-.484a.557.557 0 01.43-.203"/><path class="HairpinSegment" fill="none" stroke="#000" stroke-dasharray="3.25,13" stroke-dashoffset="9.75" stroke-width=".65" stroke-linecap="square" stroke-linejoin="bevel" d="M297.244 717.487h51.405"/><path class="VoltaSegment" d="M181.365 661.168c.552-1.489 1.359-2.234 2.422-2.234.593 0 1.088.188 1.484.563.396.375.594.854.594 1.437 0 .813-.422 1.615-1.266 2.406l-1.781 1.688h1.672c.562 0 .924-.044 1.086-.133.161-.089.32-.331.476-.727h.266l-.485 2.329h-4.625v-.25c1.25-1.334 2.081-2.318 2.493-2.954.411-.635.617-1.208.617-1.718 0-.375-.12-.701-.36-.977-.239-.276-.557-.414-.953-.414-.562 0-1.005.328-1.328.984h-.312m6.547 3.61c.26 0 .484.094.671.281a.908.908 0 01.282.664.86.86 0 01-.282.649.962.962 0 01-.687.265.918.918 0 01-.664-.265.9.9 0 01-.274-.672c0-.25.094-.466.282-.649a.93.93 0 01.672-.273"/><path class="VoltaSegment" fill="none" stroke="#000" stroke-width=".5" stroke-linecap="square" stroke-linejoin="bevel" d="M178.521 656.997h127.55M178.521 656.997v9.5"/><path class="VoltaSegment" d="M489.785 532.475c-.094 0-.201.018-.321.055a5.699 5.699 0 00-.617.226v-.297l2.766-1.187h.187v6.265c0 .428.073.704.219.829.146.125.469.192.969.203v.265h-4.125v-.265c.541-.011.896-.084 1.062-.219.167-.135.25-.427.25-.875v-4.234c0-.511-.13-.766-.39-.766m5.234 4.641c.26 0 .484.093.672.281a.91.91 0 01.281.664.859.859 0 01-.281.648.966.966 0 01-.688.266.92.92 0 01-.937-.938c0-.25.094-.466.281-.648a.933.933 0 01.672-.273"/><path class="VoltaSegment" fill="none" stroke="#000" stroke-width=".5" stroke-linecap="square" stroke-linejoin="bevel" d="M485.628 529.334h90.102M485.628 529.334v9.5M575.73 529.334v9.5"/><path class="VoltaSegment" d="M402.447 45.93c.552-1.49 1.36-2.234 2.422-2.234.594 0 1.089.187 1.484.562.396.375.594.854.594 1.438 0 .812-.422 1.614-1.265 2.406l-1.782 1.687h1.672c.563 0 .925-.044 1.086-.133.162-.088.32-.33.477-.726h.265l-.484 2.328h-4.625v-.25c1.25-1.333 2.081-2.318 2.492-2.953.412-.636.617-1.208.617-1.719 0-.375-.12-.7-.359-.976-.24-.276-.557-.414-.953-.414-.563 0-1.005.328-1.328.984h-.313m6.547 3.61c.26 0 .484.093.672.28a.91.91 0 01.281.665.86.86 0 01-.281.648.966.966 0 01-.688.266.92.92 0 01-.937-.938c0-.25.094-.466.281-.648a.932.932 0 01.672-.274"/><path class="VoltaSegment" fill="none" stroke="#000" stroke-width=".5" stroke-linecap="square" stroke-linejoin="bevel" d="M399.603 41.758H565.4M399.603 41.758v9.5"/><path class="VoltaSegment" d="M230.694 45.64c-.094 0-.2.02-.32.056-.12.036-.248.08-.383.132a4.504 4.504 0 00-.234.094v-.297l2.765-1.187h.188v6.265c0 .427.073.704.218.829.146.125.469.192.969.203V52h-4.125v-.265c.542-.01.896-.084 1.063-.22.166-.135.25-.426.25-.874v-4.234c0-.51-.13-.766-.391-.766m5.234 4.64c.261 0 .485.094.672.282a.907.907 0 01.282.664.857.857 0 01-.282.648.962.962 0 01-.687.266.916.916 0 01-.664-.266.895.895 0 01-.274-.672c0-.25.094-.466.282-.648a.928.928 0 01.671-.273"/><path class="VoltaSegment" fill="none" stroke="#000" stroke-width=".5" stroke-linecap="square" stroke-linejoin="bevel" d="M226.538 42.5h158.706M226.538 42.5V52M385.244 42.5V52"/><path class="NoteDot" d="M142.797 704.987c0 .656.547 1.203 1.203 1.203s1.203-.547 1.203-1.203-.547-1.203-1.203-1.203-1.203.547-1.203 1.203M79.443 567.159c0 .656.547 1.203 1.204 1.203.656 0 1.203-.547 1.203-1.203s-.547-1.203-1.203-1.203c-.657 0-1.204.547-1.204 1.203M154.7 449.331c0 .656.547 1.203 1.203 1.203.657 0 1.203-.547 1.203-1.203s-.546-1.203-1.203-1.203c-.656 0-1.203.547-1.203 1.203M347.1 326.503c0 .656.547 1.203 1.204 1.203.656 0 1.203-.547 1.203-1.203 0-.657-.547-1.203-1.203-1.203-.657 0-1.204.546-1.204 1.203M281.067 359.003c0 .656.547 1.203 1.203 1.203s1.203-.547 1.203-1.203c0-.657-.547-1.203-1.203-1.203s-1.203.546-1.203 1.203M223.448 374.003c0 .656.547 1.203 1.203 1.203s1.203-.547 1.203-1.203c0-.657-.547-1.203-1.203-1.203s-1.203.546-1.203 1.203M491.848 203.675c0 .656.547 1.203 1.203 1.203s1.203-.547 1.203-1.203c0-.657-.547-1.204-1.203-1.204s-1.203.547-1.203 1.204M155.879 203.675c0 .656.547 1.203 1.203 1.203s1.203-.547 1.203-1.203c0-.657-.547-1.204-1.203-1.204s-1.203.547-1.203 1.204"/><path class="Page" d="M28.594 793.348a2.27 2.27 0 01.078-.313c.031-.094.088-.226.172-.398a1.68 1.68 0 01.289-.43 1.597 1.597 0 011.117-.437c.417 0 .766.135 1.047.406.281.271.422.604.422 1 0 .604-.339 1.265-1.016 1.984l-1.328 1.422h1.89c.188 0 .326-.031.415-.094.088-.062.205-.208.351-.437l.11.031-.453 1.078h-3.11v-.094L30 795.551c.698-.729 1.047-1.417 1.047-2.063 0-.343-.104-.619-.313-.828-.208-.208-.479-.312-.812-.312-.281 0-.505.075-.672.226-.167.151-.328.425-.484.821l-.172-.047M286.656 796.066a.969.969 0 00-.258-.664 2.407 2.407 0 00-.64-.5c-.255-.14-.505-.283-.75-.429a2.251 2.251 0 01-.633-.563 1.268 1.268 0 01-.266-.797c0-.406.138-.737.414-.992.276-.255.597-.383.961-.383.23 0 .474.047.735.141.26.094.422.141.484.141.136 0 .219-.094.25-.282h.172l.172 1.719h-.203c-.125-.469-.321-.815-.586-1.039a1.338 1.338 0 00-.883-.336c-.25 0-.451.07-.602.211a.686.686 0 00-.226.523c0 .219.091.422.273.61.183.187.482.401.899.64.531.282.916.558 1.156.829.24.27.359.573.359.906 0 .417-.158.765-.476 1.047-.318.281-.711.422-1.18.422-.26 0-.529-.05-.805-.149-.276-.099-.445-.148-.507-.148-.052 0-.102.028-.149.086a.32.32 0 00-.07.211h-.172l-.25-1.719h.187c.198.479.428.833.688 1.062.26.23.568.344.922.344.292 0 .529-.083.711-.25a.83.83 0 00.273-.641m1.703-2.046c-.125 0-.239.005-.343.015v-.109c.375-.104.791-.25 1.25-.438l.031.016v2.844c0 .281.034.461.101.539.068.078.232.127.493.148v.125h-1.907v-.125c.282-.01.459-.057.532-.14.073-.084.109-.266.109-.547v-1.86c0-.177-.021-.299-.063-.367-.041-.068-.109-.101-.203-.101m.532-2.329a.41.41 0 01.297.125.408.408 0 01.124.297.38.38 0 01-.124.289.419.419 0 01-.297.118.38.38 0 01-.289-.125.409.409 0 01-.118-.289.41.41 0 01.118-.29.38.38 0 01.289-.125m1.297 2.297v-.125c.385-.114.76-.239 1.124-.375l.047.016v.609c.334-.26.579-.429.735-.507.156-.079.323-.118.5-.118.427 0 .713.23.859.688.417-.458.849-.688 1.297-.688.625 0 .938.474.938 1.422v1.641c0 .302.114.458.343.469l.203.015v.125h-1.765v-.125c.239-.021.388-.062.445-.125.057-.062.086-.208.086-.437v-1.688c0-.323-.042-.549-.125-.679-.083-.131-.24-.196-.469-.196-.354 0-.64.162-.859.485v2.015c0 .25.036.417.109.5.073.084.224.125.453.125v.125h-1.797v-.125c.23-.01.378-.049.446-.117s.101-.216.101-.445v-1.719c0-.563-.177-.844-.531-.844-.146 0-.31.039-.492.117a1.065 1.065 0 00-.445.352v2.25c0 .156.039.26.117.312.078.053.221.084.43.094v.125h-1.782v-.125c.229 0 .38-.036.453-.109.073-.073.11-.219.11-.438v-2.015c0-.188-.021-.321-.063-.399-.041-.078-.114-.117-.218-.117-.084 0-.167.011-.25.031m8.093-.5c.511 0 .933.17 1.266.508.333.339.5.768.5 1.289 0 .563-.172 1.029-.516 1.399a1.66 1.66 0 01-1.265.554c-.5 0-.92-.179-1.258-.539-.339-.359-.508-.81-.508-1.351 0-.542.164-.987.492-1.336.328-.349.758-.524 1.289-.524m-1.047 1.485c0 .562.105 1.041.313 1.437.208.396.479.594.812.594.292 0 .524-.128.696-.383.172-.255.257-.607.257-1.055 0-.541-.106-.984-.32-1.328-.213-.343-.487-.515-.82-.515a.81.81 0 00-.68.343c-.172.23-.258.532-.258.907m3.063-1v-.141c.396-.114.765-.229 1.109-.344l.063.016v.625c.271-.26.484-.432.64-.516.157-.083.329-.125.516-.125.292 0 .521.105.687.313.167.208.25.5.25.875v1.828c0 .198.034.331.102.398.068.068.201.112.398.133v.125h-1.671v-.125c.198-.01.33-.062.398-.156s.102-.266.102-.516v-1.672c0-.52-.193-.781-.579-.781a.724.724 0 00-.367.094 3.06 3.06 0 00-.461.359v2.266c0 .135.039.234.118.297.078.062.216.099.414.109v.125h-1.704v-.125c.209-.01.344-.054.407-.133.062-.078.093-.231.093-.461v-1.984c0-.198-.02-.333-.062-.406-.042-.073-.12-.11-.234-.11a.53.53 0 00-.219.032m8.969-1.953v-.157h2.093v.157c-.281.02-.489.065-.625.132-.135.068-.333.232-.593.493l-1.516 1.5 1.859 2c.365.385.612.625.743.718.13.094.299.141.507.141v.156h-2.437v-.156h.101a.612.612 0 00.11-.008c.026-.005.06-.01.101-.015a2.35 2.35 0 00.102-.016.177.177 0 00.07-.031.7.7 0 00.055-.047.074.074 0 00.023-.055c0-.104-.096-.284-.289-.539a6.43 6.43 0 00-.758-.82l-.843-.844-.203.172v1.484c0 .292.041.479.125.563.083.083.281.135.593.156v.156h-2.25v-.156c.313-.021.511-.078.594-.172.083-.094.125-.302.125-.625v-3.469c0-.281-.044-.466-.133-.554-.088-.089-.284-.144-.586-.164v-.157h2.266v.157c-.323.02-.526.073-.609.156-.084.083-.125.271-.125.562v1.641l1.422-1.281c.406-.386.609-.662.609-.828 0-.084-.024-.144-.07-.18-.047-.037-.133-.06-.258-.07h-.203"/><path class="Bracket" fill-rule="evenodd" d="M36.755 703.281c0-5.841-4.023-11.519-4.023-17.114 0-2.819 1.097-5.555 4.48-8.006a.154.154 0 00.069-.112c0-.092-.252-.174-.434-.174-.092 0-.252.01-.366.082-4.389 3.145-5.852 6.78-5.852 10.456 0 5.923 4.297 11.641 4.297 17.318 0 2.819-1.097 5.474-4.48 7.924v.164c3.383 2.45 4.48 5.105 4.48 7.924 0 5.677-4.297 11.395-4.297 17.318 0 3.676 1.463 7.311 5.852 10.456.114.072.274.082.365.082.183 0 .435-.082.435-.174a.154.154 0 00-.069-.112c-3.383-2.451-4.48-5.187-4.48-8.006 0-5.595 4.023-11.273 4.023-17.114 0-3.717-1.463-7.27-5.76-10.456 4.297-3.186 5.76-6.739 5.76-10.456M36.755 580.453c0-5.841-4.023-11.519-4.023-17.115 0-2.818 1.097-5.555 4.48-8.005a.154.154 0 00.069-.113c0-.091-.252-.173-.434-.173-.092 0-.252.01-.366.082-4.389 3.145-5.852 6.78-5.852 10.456 0 5.922 4.297 11.641 4.297 17.318 0 2.819-1.097 5.473-4.48 7.924v.164c3.383 2.45 4.48 5.105 4.48 7.924 0 5.677-4.297 11.395-4.297 17.318 0 3.676 1.463 7.311 5.852 10.456.114.072.274.082.365.082.183 0 .435-.082.435-.174a.154.154 0 00-.069-.112c-3.383-2.451-4.48-5.187-4.48-8.006 0-5.595 4.023-11.273 4.023-17.114 0-3.717-1.463-7.27-5.76-10.456 4.297-3.186 5.76-6.74 5.76-10.456M36.755 457.624c0-5.84-4.023-11.518-4.023-17.114 0-2.818 1.097-5.555 4.48-8.005a.154.154 0 00.069-.113c0-.092-.252-.173-.434-.173-.092 0-.252.01-.366.081-4.389 3.146-5.852 6.781-5.852 10.457 0 5.922 4.297 11.641 4.297 17.318 0 2.818-1.097 5.473-4.48 7.924v.163c3.383 2.451 4.48 5.106 4.48 7.924 0 5.678-4.297 11.396-4.297 17.319 0 3.676 1.463 7.311 5.852 10.456.114.072.274.082.365.082.183 0 .435-.082.435-.174a.152.152 0 00-.069-.112c-3.383-2.451-4.48-5.187-4.48-8.006 0-5.596 4.023-11.273 4.023-17.114 0-3.717-1.463-7.27-5.76-10.456 4.297-3.186 5.76-6.74 5.76-10.457M36.755 334.796c0-5.841-4.023-11.518-4.023-17.114 0-2.818 1.097-5.555 4.48-8.005a.154.154 0 00.069-.113c0-.092-.252-.173-.434-.173-.092 0-.252.01-.366.081-4.389 3.145-5.852 6.781-5.852 10.457 0 5.922 4.297 11.641 4.297 17.318 0 2.818-1.097 5.473-4.48 7.924v.163c3.383 2.451 4.48 5.106 4.48 7.924 0 5.678-4.297 11.396-4.297 17.319 0 3.676 1.463 7.311 5.852 10.456a.737.737 0 00.365.082c.183 0 .435-.082.435-.174a.15.15 0 00-.069-.112c-3.383-2.451-4.48-5.188-4.48-8.006 0-5.596 4.023-11.273 4.023-17.114 0-3.717-1.463-7.27-5.76-10.456 4.297-3.186 5.76-6.74 5.76-10.457M36.755 211.968c0-5.841-4.023-11.518-4.023-17.114 0-2.818 1.097-5.555 4.48-8.005a.154.154 0 00.069-.113c0-.092-.252-.173-.434-.173-.092 0-.252.01-.366.081-4.389 3.145-5.852 6.781-5.852 10.457 0 5.922 4.297 11.64 4.297 17.318 0 2.818-1.097 5.473-4.48 7.924v.163c3.383 2.451 4.48 5.106 4.48 7.924 0 5.678-4.297 11.396-4.297 17.319 0 3.676 1.463 7.311 5.852 10.456a.737.737 0 00.365.082c.183 0 .435-.082.435-.174a.15.15 0 00-.069-.112c-3.383-2.451-4.48-5.188-4.48-8.006 0-5.596 4.023-11.273 4.023-17.114 0-3.717-1.463-7.27-5.76-10.456 4.297-3.186 5.76-6.74 5.76-10.457M36.755 89.14c0-5.84-4.023-11.518-4.023-17.114 0-2.818 1.097-5.555 4.48-8.006a.153.153 0 00.069-.112c0-.092-.252-.174-.434-.174-.092 0-.252.01-.366.082-4.389 3.145-5.852 6.78-5.852 10.456 0 5.923 4.297 11.641 4.297 17.319 0 2.818-1.097 5.473-4.48 7.924v.163c3.383 2.451 4.48 5.106 4.48 7.924 0 5.678-4.297 11.396-4.297 17.318 0 3.677 1.463 7.312 5.852 10.457.114.071.274.081.365.081.183 0 .435-.081.435-.173a.15.15 0 00-.069-.112c-3.383-2.451-4.48-5.188-4.48-8.006 0-5.596 4.023-11.273 4.023-17.114 0-3.717-1.463-7.271-5.76-10.456 4.297-3.186 5.76-6.74 5.76-10.457"/></svg>
